<svg xmlns="http://www.w3.org/2000/svg" xmlns:xlink="http://www.w3.org/1999/xlink" version="1.1" class="marks" width="863" height="464" viewBox="0 0 863 464"><rect width="863" height="464" fill="white"/><g fill="none" stroke-miterlimit="10" transform="translate(58,27)"><g class="mark-group role-frame root" role="graphics-object" aria-roledescription="group mark container"><g transform="translate(0,0)"><path class="background" aria-hidden="true" d="M0.5,0.5h800v400h-800Z" stroke="#ddd"/><g><g class="mark-group role-axis" aria-hidden="true"><g transform="translate(0.5,400.5)"><path class="background" aria-hidden="true" d="M0,0h0v0h0Z" pointer-events="none"/><g><g class="mark-rule role-axis-grid" pointer-events="none"><line transform="translate(20,-400)" x2="0" y2="400" stroke="#ddd" stroke-width="1" opacity="1"/><line transform="translate(60,-400)" x2="0" y2="400" stroke="#ddd" stroke-width="1" opacity="1"/><line transform="translate(100,-400)" x2="0" y2="400" stroke="#ddd" stroke-width="1" opacity="1"/><line transform="translate(140,-400)" x2="0" y2="400" stroke="#ddd" stroke-width="1" opacity="1"/><line transform="translate(180,-400)" x2="0" y2="400" stroke="#ddd" stroke-width="1" opacity="1"/><line transform="translate(220,-400)" x2="0" y2="400" stroke="#ddd" stroke-width="1" opacity="1"/><line transform="translate(260,-400)" x2="0" y2="400" stroke="#ddd" stroke-width="1" opacity="1"/><line transform="translate(300,-400)" x2="0" y2="400" stroke="#ddd" stroke-width="1" opacity="1"/><line transform="translate(340,-400)" x2="0" y2="400" stroke="#ddd" stroke-width="1" opacity="1"/><line transform="translate(380,-400)" x2="0" y2="400" stroke="#ddd" stroke-width="1" opacity="1"/><line transform="translate(420,-400)" x2="0" y2="400" stroke="#ddd" stroke-width="1" opacity="1"/><line transform="translate(460,-400)" x2="0" y2="400" stroke="#ddd" stroke-width="1" opacity="1"/><line transform="translate(500,-400)" x2="0" y2="400" stroke="#ddd" stroke-width="1" opacity="1"/><line transform="translate(540,-400)" x2="0" y2="400" stroke="#ddd" stroke-width="1" opacity="1"/><line transform="translate(580,-400)" x2="0" y2="400" stroke="#ddd" stroke-width="1" opacity="1"/><line transform="translate(620,-400)" x2="0" y2="400" stroke="#ddd" stroke-width="1" opacity="1"/><line transform="translate(660,-400)" x2="0" y2="400" stroke="#ddd" stroke-width="1" opacity="1"/><line transform="translate(700,-400)" x2="0" y2="400" stroke="#ddd" stroke-width="1" opacity="1"/><line transform="translate(740,-400)" x2="0" y2="400" stroke="#ddd" stroke-width="1" opacity="1"/><line transform="translate(780,-400)" x2="0" y2="400" stroke="#ddd" stroke-width="1" opacity="1"/></g></g><path class="foreground" aria-hidden="true" d="" pointer-events="none" display="none"/></g></g><g class="mark-group role-axis" aria-hidden="true"><g transform="translate(0.5,0.5)"><path class="background" aria-hidden="true" d="M0,0h0v0h0Z" pointer-events="none"/><g><g class="mark-rule role-axis-grid" pointer-events="none"><line transform="translate(0,400)" x2="800" y2="0" stroke="#ddd" stroke-width="1" opacity="1"/><line transform="translate(0,367)" x2="800" y2="0" stroke="#ddd" stroke-width="1" opacity="1"/><line transform="translate(0,333)" x2="800" y2="0" stroke="#ddd" stroke-width="1" opacity="1"/><line transform="translate(0,300)" x2="800" y2="0" stroke="#ddd" stroke-width="1" opacity="1"/><line transform="translate(0,267)" x2="800" y2="0" stroke="#ddd" stroke-width="1" opacity="1"/><line transform="translate(0,233)" x2="800" y2="0" stroke="#ddd" stroke-width="1" opacity="1"/><line transform="translate(0,200)" x2="800" y2="0" stroke="#ddd" stroke-width="1" opacity="1"/><line transform="translate(0,167)" x2="800" y2="0" stroke="#ddd" stroke-width="1" opacity="1"/><line transform="translate(0,133)" x2="800" y2="0" stroke="#ddd" stroke-width="1" opacity="1"/><line transform="translate(0,100)" x2="800" y2="0" stroke="#ddd" stroke-width="1" opacity="1"/><line transform="translate(0,67)" x2="800" y2="0" stroke="#ddd" stroke-width="1" opacity="1"/><line transform="translate(0,33)" x2="800" y2="0" stroke="#ddd" stroke-width="1" opacity="1"/><line transform="translate(0,0)" x2="800" y2="0" stroke="#ddd" stroke-width="1" opacity="1"/></g></g><path class="foreground" aria-hidden="true" d="" pointer-events="none" display="none"/></g></g><g class="mark-group role-axis" role="graphics-symbol" aria-roledescription="axis" aria-label="X-axis titled 'Response Time (ns)' for a linear scale with values from 350 to 750"><g transform="translate(0.5,400.5)"><path class="background" aria-hidden="true" d="M0,0h0v0h0Z" pointer-events="none"/><g><g class="mark-rule role-axis-tick" pointer-events="none"><line transform="translate(20,0)" x2="0" y2="5" stroke="#888" stroke-width="1" opacity="1"/><line transform="translate(60,0)" x2="0" y2="5" stroke="#888" stroke-width="1" opacity="1"/><line transform="translate(100,0)" x2="0" y2="5" stroke="#888" stroke-width="1" opacity="1"/><line transform="translate(140,0)" x2="0" y2="5" stroke="#888" stroke-width="1" opacity="1"/><line transform="translate(180,0)" x2="0" y2="5" stroke="#888" stroke-width="1" opacity="1"/><line transform="translate(220,0)" x2="0" y2="5" stroke="#888" stroke-width="1" opacity="1"/><line transform="translate(260,0)" x2="0" y2="5" stroke="#888" stroke-width="1" opacity="1"/><line transform="translate(300,0)" x2="0" y2="5" stroke="#888" stroke-width="1" opacity="1"/><line transform="translate(340,0)" x2="0" y2="5" stroke="#888" stroke-width="1" opacity="1"/><line transform="translate(380,0)" x2="0" y2="5" stroke="#888" stroke-width="1" opacity="1"/><line transform="translate(420,0)" x2="0" y2="5" stroke="#888" stroke-width="1" opacity="1"/><line transform="translate(460,0)" x2="0" y2="5" stroke="#888" stroke-width="1" opacity="1"/><line transform="translate(500,0)" x2="0" y2="5" stroke="#888" stroke-width="1" opacity="1"/><line transform="translate(540,0)" x2="0" y2="5" stroke="#888" stroke-width="1" opacity="1"/><line transform="translate(580,0)" x2="0" y2="5" stroke="#888" stroke-width="1" opacity="1"/><line transform="translate(620,0)" x2="0" y2="5" stroke="#888" stroke-width="1" opacity="1"/><line transform="translate(660,0)" x2="0" y2="5" stroke="#888" stroke-width="1" opacity="1"/><line transform="translate(700,0)" x2="0" y2="5" stroke="#888" stroke-width="1" opacity="1"/><line transform="translate(740,0)" x2="0" y2="5" stroke="#888" stroke-width="1" opacity="1"/><line transform="translate(780,0)" x2="0" y2="5" stroke="#888" stroke-width="1" opacity="1"/></g><g class="mark-text role-axis-label" pointer-events="none"><text text-anchor="middle" transform="translate(20,15)" font-family="sans-serif" font-size="10px" fill="#000" opacity="1">360</text><text text-anchor="middle" transform="translate(60,15)" font-family="sans-serif" font-size="10px" fill="#000" opacity="1">380</text><text text-anchor="middle" transform="translate(100,15)" font-family="sans-serif" font-size="10px" fill="#000" opacity="1">400</text><text text-anchor="middle" transform="translate(140,15)" font-family="sans-serif" font-size="10px" fill="#000" opacity="1">420</text><text text-anchor="middle" transform="translate(180,15)" font-family="sans-serif" font-size="10px" fill="#000" opacity="1">440</text><text text-anchor="middle" transform="translate(220.00000000000003,15)" font-family="sans-serif" font-size="10px" fill="#000" opacity="1">460</text><text text-anchor="middle" transform="translate(260,15)" font-family="sans-serif" font-size="10px" fill="#000" opacity="1">480</text><text text-anchor="middle" transform="translate(300,15)" font-family="sans-serif" font-size="10px" fill="#000" opacity="1">500</text><text text-anchor="middle" transform="translate(340,15)" font-family="sans-serif" font-size="10px" fill="#000" opacity="1">520</text><text text-anchor="middle" transform="translate(380,15)" font-family="sans-serif" font-size="10px" fill="#000" opacity="1">540</text><text text-anchor="middle" transform="translate(420,15)" font-family="sans-serif" font-size="10px" fill="#000" opacity="1">560</text><text text-anchor="middle" transform="translate(459.99999999999994,15)" font-family="sans-serif" font-size="10px" fill="#000" opacity="1">580</text><text text-anchor="middle" transform="translate(500,15)" font-family="sans-serif" font-size="10px" fill="#000" opacity="1">600</text><text text-anchor="middle" transform="translate(540,15)" font-family="sans-serif" font-size="10px" fill="#000" opacity="1">620</text><text text-anchor="middle" transform="translate(580,15)" font-family="sans-serif" font-size="10px" fill="#000" opacity="1">640</text><text text-anchor="middle" transform="translate(620,15)" font-family="sans-serif" font-size="10px" fill="#000" opacity="1">660</text><text text-anchor="middle" transform="translate(660,15)" font-family="sans-serif" font-size="10px" fill="#000" opacity="1">680</text><text text-anchor="middle" transform="translate(700,15)" font-family="sans-serif" font-size="10px" fill="#000" opacity="1">700</text><text text-anchor="middle" transform="translate(740,15)" font-family="sans-serif" font-size="10px" fill="#000" opacity="1">720</text><text text-anchor="middle" transform="translate(780,15)" font-family="sans-serif" font-size="10px" fill="#000" opacity="1">740</text></g><g class="mark-rule role-axis-domain" pointer-events="none"><line transform="translate(0,0)" x2="800" y2="0" stroke="#888" stroke-width="1" opacity="1"/></g><g class="mark-text role-axis-title" pointer-events="none"><text text-anchor="middle" transform="translate(400,30)" font-family="sans-serif" font-size="11px" font-weight="bold" fill="#000" opacity="1">Response Time (ns)</text></g></g><path class="foreground" aria-hidden="true" d="" pointer-events="none" display="none"/></g></g><g class="mark-group role-axis" role="graphics-symbol" aria-roledescription="axis" aria-label="Y-axis titled 'Count' for a linear scale with values from 0 to 60,000"><g transform="translate(0.5,0.5)"><path class="background" aria-hidden="true" d="M0,0h0v0h0Z" pointer-events="none"/><g><g class="mark-rule role-axis-tick" pointer-events="none"><line transform="translate(0,400)" x2="-5" y2="0" stroke="#888" stroke-width="1" opacity="1"/><line transform="translate(0,367)" x2="-5" y2="0" stroke="#888" stroke-width="1" opacity="1"/><line transform="translate(0,333)" x2="-5" y2="0" stroke="#888" stroke-width="1" opacity="1"/><line transform="translate(0,300)" x2="-5" y2="0" stroke="#888" stroke-width="1" opacity="1"/><line transform="translate(0,267)" x2="-5" y2="0" stroke="#888" stroke-width="1" opacity="1"/><line transform="translate(0,233)" x2="-5" y2="0" stroke="#888" stroke-width="1" opacity="1"/><line transform="translate(0,200)" x2="-5" y2="0" stroke="#888" stroke-width="1" opacity="1"/><line transform="translate(0,167)" x2="-5" y2="0" stroke="#888" stroke-width="1" opacity="1"/><line transform="translate(0,133)" x2="-5" y2="0" stroke="#888" stroke-width="1" opacity="1"/><line transform="translate(0,100)" x2="-5" y2="0" stroke="#888" stroke-width="1" opacity="1"/><line transform="translate(0,67)" x2="-5" y2="0" stroke="#888" stroke-width="1" opacity="1"/><line transform="translate(0,33)" x2="-5" y2="0" stroke="#888" stroke-width="1" opacity="1"/><line transform="translate(0,0)" x2="-5" y2="0" stroke="#888" stroke-width="1" opacity="1"/></g><g class="mark-text role-axis-label" pointer-events="none"><text text-anchor="end" transform="translate(-7,403)" font-family="sans-serif" font-size="10px" fill="#000" opacity="1">0</text><text text-anchor="end" transform="translate(-7,369.66666666666663)" font-family="sans-serif" font-size="10px" fill="#000" opacity="1">5,000</text><text text-anchor="end" transform="translate(-7,336.33333333333337)" font-family="sans-serif" font-size="10px" fill="#000" opacity="1">10,000</text><text text-anchor="end" transform="translate(-7,303)" font-family="sans-serif" font-size="10px" fill="#000" opacity="1">15,000</text><text text-anchor="end" transform="translate(-7,269.6666666666667)" font-family="sans-serif" font-size="10px" fill="#000" opacity="1">20,000</text><text text-anchor="end" transform="translate(-7,236.33333333333331)" font-family="sans-serif" font-size="10px" fill="#000" opacity="1">25,000</text><text text-anchor="end" transform="translate(-7,203)" font-family="sans-serif" font-size="10px" fill="#000" opacity="1">30,000</text><text text-anchor="end" transform="translate(-7,169.66666666666666)" font-family="sans-serif" font-size="10px" fill="#000" opacity="1">35,000</text><text text-anchor="end" transform="translate(-7,136.33333333333334)" font-family="sans-serif" font-size="10px" fill="#000" opacity="1">40,000</text><text text-anchor="end" transform="translate(-7,103)" font-family="sans-serif" font-size="10px" fill="#000" opacity="1">45,000</text><text text-anchor="end" transform="translate(-7,69.66666666666666)" font-family="sans-serif" font-size="10px" fill="#000" opacity="1">50,000</text><text text-anchor="end" transform="translate(-7,36.33333333333335)" font-family="sans-serif" font-size="10px" fill="#000" opacity="1">55,000</text><text text-anchor="end" transform="translate(-7,3)" font-family="sans-serif" font-size="10px" fill="#000" opacity="1">60,000</text></g><g class="mark-rule role-axis-domain" pointer-events="none"><line transform="translate(0,400)" x2="0" y2="-400" stroke="#888" stroke-width="1" opacity="1"/></g><g class="mark-text role-axis-title" pointer-events="none"><text text-anchor="middle" transform="translate(-41.5859375,200) rotate(-90) translate(0,-2)" font-family="sans-serif" font-size="11px" font-weight="bold" fill="#000" opacity="1">Count</text></g></g><path class="foreground" aria-hidden="true" d="" pointer-events="none" display="none"/></g></g><g class="mark-rect role-mark marks" role="graphics-object" aria-roledescription="rect mark container"><path aria-label="Response Time (ns): 728; Count: 1" role="graphics-symbol" aria-roledescription="bar" d="M753.5000000000002,399.99333333333334h5v0.006666666666660603h-5Z" fill="#4c78a8"/><path aria-label="Response Time (ns): 632; Count: 1" role="graphics-symbol" aria-roledescription="bar" d="M561.5,399.99333333333334h5v0.006666666666660603h-5Z" fill="#4c78a8"/><path aria-label="Response Time (ns): 592; Count: 1" role="graphics-symbol" aria-roledescription="bar" d="M481.5,399.99333333333334h5v0.006666666666660603h-5Z" fill="#4c78a8"/><path aria-label="Response Time (ns): 568; Count: 1" role="graphics-symbol" aria-roledescription="bar" d="M433.50000000000006,399.99333333333334h5v0.006666666666660603h-5Z" fill="#4c78a8"/><path aria-label="Response Time (ns): 560; Count: 2" role="graphics-symbol" aria-roledescription="bar" d="M417.5,399.9866666666667h5v0.013333333333321207h-5Z" fill="#4c78a8"/><path aria-label="Response Time (ns): 552; Count: 1" role="graphics-symbol" aria-roledescription="bar" d="M401.5000000000003,399.99333333333334h5v0.006666666666660603h-5Z" fill="#4c78a8"/><path aria-label="Response Time (ns): 504; Count: 2" role="graphics-symbol" aria-roledescription="bar" d="M305.5000000000001,399.9866666666667h5v0.013333333333321207h-5Z" fill="#4c78a8"/><path aria-label="Response Time (ns): 496; Count: 2" role="graphics-symbol" aria-roledescription="bar" d="M289.5,399.9866666666667h5v0.013333333333321207h-5Z" fill="#4c78a8"/><path aria-label="Response Time (ns): 464; Count: 2" role="graphics-symbol" aria-roledescription="bar" d="M225.49999999999997,399.9866666666667h5v0.013333333333321207h-5Z" fill="#4c78a8"/><path aria-label="Response Time (ns): 456; Count: 1" role="graphics-symbol" aria-roledescription="bar" d="M209.5,399.99333333333334h5v0.006666666666660603h-5Z" fill="#4c78a8"/><path aria-label="Response Time (ns): 448; Count: 5" role="graphics-symbol" aria-roledescription="bar" d="M193.5000000000001,399.9666666666667h5v0.03333333333330302h-5Z" fill="#4c78a8"/><path aria-label="Response Time (ns): 440; Count: 7" role="graphics-symbol" aria-roledescription="bar" d="M177.5,399.9533333333333h5v0.04666666666668107h-5Z" fill="#4c78a8"/><path aria-label="Response Time (ns): 432; Count: 4" role="graphics-symbol" aria-roledescription="bar" d="M161.5,399.97333333333336h5v0.026666666666642413h-5Z" fill="#4c78a8"/><path aria-label="Response Time (ns): 424; Count: 6" role="graphics-symbol" aria-roledescription="bar" d="M145.5000000000001,399.96h5v0.040000000000020464h-5Z" fill="#4c78a8"/><path aria-label="Response Time (ns): 416; Count: 3" role="graphics-symbol" aria-roledescription="bar" d="M129.5,399.98h5v0.01999999999998181h-5Z" fill="#4c78a8"/><path aria-label="Response Time (ns): 408; Count: 8" role="graphics-symbol" aria-roledescription="bar" d="M113.49999999999999,399.94666666666666h5v0.05333333333334167h-5Z" fill="#4c78a8"/><path aria-label="Response Time (ns): 400; Count: 56484" role="graphics-symbol" aria-roledescription="bar" d="M97.50000000000011,23.439999999999994h5v376.56h-5Z" fill="#4c78a8"/><path aria-label="Response Time (ns): 392; Count: 49987" role="graphics-symbol" aria-roledescription="bar" d="M81.5,66.75333333333336h5v333.24666666666667h-5Z" fill="#4c78a8"/></g><g class="mark-group role-title"><g transform="translate(400,-22)"><path class="background" aria-hidden="true" d="M0,0h0v0h0Z" pointer-events="none"/><g><g class="mark-text role-title-text" role="graphics-symbol" aria-roledescription="title" aria-label="Title text 'response_simulator_zephyr_hal_1: bin_width_s=8.0ns, 106518 measurements'" pointer-events="none"><text text-anchor="middle" transform="translate(0,10)" font-family="sans-serif" font-size="13px" font-weight="bold" fill="#000" opacity="1">response_simulator_zephyr_hal_1: bin_width_s=8.0ns, 106518 measurements</text></g></g><path class="foreground" aria-hidden="true" d="" pointer-events="none" display="none"/></g></g></g><path class="foreground" aria-hidden="true" d="" display="none"/></g></g></g></svg>