<svg xmlns="http://www.w3.org/2000/svg" xmlns:xlink="http://www.w3.org/1999/xlink" version="1.1" class="marks" width="858" height="464" viewBox="0 0 858 464"><rect width="858" height="464" fill="white"/><g fill="none" stroke-miterlimit="10" transform="translate(53,27)"><g class="mark-group role-frame root" role="graphics-object" aria-roledescription="group mark container"><g transform="translate(0,0)"><path class="background" aria-hidden="true" d="M0.5,0.5h800v400h-800Z" stroke="#ddd"/><g><g class="mark-group role-axis" aria-hidden="true"><g transform="translate(0.5,400.5)"><path class="background" aria-hidden="true" d="M0,0h0v0h0Z" pointer-events="none"/><g><g class="mark-rule role-axis-grid" pointer-events="none"><line transform="translate(16,-400)" x2="0" y2="400" stroke="#ddd" stroke-width="1" opacity="1"/><line transform="translate(48,-400)" x2="0" y2="400" stroke="#ddd" stroke-width="1" opacity="1"/><line transform="translate(80,-400)" x2="0" y2="400" stroke="#ddd" stroke-width="1" opacity="1"/><line transform="translate(112,-400)" x2="0" y2="400" stroke="#ddd" stroke-width="1" opacity="1"/><line transform="translate(144,-400)" x2="0" y2="400" stroke="#ddd" stroke-width="1" opacity="1"/><line transform="translate(176,-400)" x2="0" y2="400" stroke="#ddd" stroke-width="1" opacity="1"/><line transform="translate(208,-400)" x2="0" y2="400" stroke="#ddd" stroke-width="1" opacity="1"/><line transform="translate(240,-400)" x2="0" y2="400" stroke="#ddd" stroke-width="1" opacity="1"/><line transform="translate(272,-400)" x2="0" y2="400" stroke="#ddd" stroke-width="1" opacity="1"/><line transform="translate(304,-400)" x2="0" y2="400" stroke="#ddd" stroke-width="1" opacity="1"/><line transform="translate(336,-400)" x2="0" y2="400" stroke="#ddd" stroke-width="1" opacity="1"/><line transform="translate(368,-400)" x2="0" y2="400" stroke="#ddd" stroke-width="1" opacity="1"/><line transform="translate(400,-400)" x2="0" y2="400" stroke="#ddd" stroke-width="1" opacity="1"/><line transform="translate(432,-400)" x2="0" y2="400" stroke="#ddd" stroke-width="1" opacity="1"/><line transform="translate(464,-400)" x2="0" y2="400" stroke="#ddd" stroke-width="1" opacity="1"/><line transform="translate(496,-400)" x2="0" y2="400" stroke="#ddd" stroke-width="1" opacity="1"/><line transform="translate(528,-400)" x2="0" y2="400" stroke="#ddd" stroke-width="1" opacity="1"/><line transform="translate(560,-400)" x2="0" y2="400" stroke="#ddd" stroke-width="1" opacity="1"/><line transform="translate(592,-400)" x2="0" y2="400" stroke="#ddd" stroke-width="1" opacity="1"/><line transform="translate(624,-400)" x2="0" y2="400" stroke="#ddd" stroke-width="1" opacity="1"/><line transform="translate(656,-400)" x2="0" y2="400" stroke="#ddd" stroke-width="1" opacity="1"/><line transform="translate(688,-400)" x2="0" y2="400" stroke="#ddd" stroke-width="1" opacity="1"/><line transform="translate(720,-400)" x2="0" y2="400" stroke="#ddd" stroke-width="1" opacity="1"/><line transform="translate(752,-400)" x2="0" y2="400" stroke="#ddd" stroke-width="1" opacity="1"/><line transform="translate(784,-400)" x2="0" y2="400" stroke="#ddd" stroke-width="1" opacity="1"/></g></g><path class="foreground" aria-hidden="true" d="" pointer-events="none" display="none"/></g></g><g class="mark-group role-axis" aria-hidden="true"><g transform="translate(0.5,0.5)"><path class="background" aria-hidden="true" d="M0,0h0v0h0Z" pointer-events="none"/><g><g class="mark-rule role-axis-grid" pointer-events="none"><line transform="translate(0,400)" x2="800" y2="0" stroke="#ddd" stroke-width="1" opacity="1"/><line transform="translate(0,371)" x2="800" y2="0" stroke="#ddd" stroke-width="1" opacity="1"/><line transform="translate(0,343)" x2="800" y2="0" stroke="#ddd" stroke-width="1" opacity="1"/><line transform="translate(0,314)" x2="800" y2="0" stroke="#ddd" stroke-width="1" opacity="1"/><line transform="translate(0,286)" x2="800" y2="0" stroke="#ddd" stroke-width="1" opacity="1"/><line transform="translate(0,257)" x2="800" y2="0" stroke="#ddd" stroke-width="1" opacity="1"/><line transform="translate(0,229)" x2="800" y2="0" stroke="#ddd" stroke-width="1" opacity="1"/><line transform="translate(0,200)" x2="800" y2="0" stroke="#ddd" stroke-width="1" opacity="1"/><line transform="translate(0,171)" x2="800" y2="0" stroke="#ddd" stroke-width="1" opacity="1"/><line transform="translate(0,143)" x2="800" y2="0" stroke="#ddd" stroke-width="1" opacity="1"/><line transform="translate(0,114)" x2="800" y2="0" stroke="#ddd" stroke-width="1" opacity="1"/><line transform="translate(0,86)" x2="800" y2="0" stroke="#ddd" stroke-width="1" opacity="1"/><line transform="translate(0,57)" x2="800" y2="0" stroke="#ddd" stroke-width="1" opacity="1"/><line transform="translate(0,29)" x2="800" y2="0" stroke="#ddd" stroke-width="1" opacity="1"/><line transform="translate(0,0)" x2="800" y2="0" stroke="#ddd" stroke-width="1" opacity="1"/></g></g><path class="foreground" aria-hidden="true" d="" pointer-events="none" display="none"/></g></g><g class="mark-group role-axis" role="graphics-symbol" aria-roledescription="axis" aria-label="X-axis titled 'Response Time (us)' for a linear scale with values from 15 to 65"><g transform="translate(0.5,400.5)"><path class="background" aria-hidden="true" d="M0,0h0v0h0Z" pointer-events="none"/><g><g class="mark-rule role-axis-tick" pointer-events="none"><line transform="translate(16,0)" x2="0" y2="5" stroke="#888" stroke-width="1" opacity="1"/><line transform="translate(48,0)" x2="0" y2="5" stroke="#888" stroke-width="1" opacity="1"/><line transform="translate(80,0)" x2="0" y2="5" stroke="#888" stroke-width="1" opacity="1"/><line transform="translate(112,0)" x2="0" y2="5" stroke="#888" stroke-width="1" opacity="1"/><line transform="translate(144,0)" x2="0" y2="5" stroke="#888" stroke-width="1" opacity="1"/><line transform="translate(176,0)" x2="0" y2="5" stroke="#888" stroke-width="1" opacity="1"/><line transform="translate(208,0)" x2="0" y2="5" stroke="#888" stroke-width="1" opacity="1"/><line transform="translate(240,0)" x2="0" y2="5" stroke="#888" stroke-width="1" opacity="1"/><line transform="translate(272,0)" x2="0" y2="5" stroke="#888" stroke-width="1" opacity="1"/><line transform="translate(304,0)" x2="0" y2="5" stroke="#888" stroke-width="1" opacity="1"/><line transform="translate(336,0)" x2="0" y2="5" stroke="#888" stroke-width="1" opacity="1"/><line transform="translate(368,0)" x2="0" y2="5" stroke="#888" stroke-width="1" opacity="1"/><line transform="translate(400,0)" x2="0" y2="5" stroke="#888" stroke-width="1" opacity="1"/><line transform="translate(432,0)" x2="0" y2="5" stroke="#888" stroke-width="1" opacity="1"/><line transform="translate(464,0)" x2="0" y2="5" stroke="#888" stroke-width="1" opacity="1"/><line transform="translate(496,0)" x2="0" y2="5" stroke="#888" stroke-width="1" opacity="1"/><line transform="translate(528,0)" x2="0" y2="5" stroke="#888" stroke-width="1" opacity="1"/><line transform="translate(560,0)" x2="0" y2="5" stroke="#888" stroke-width="1" opacity="1"/><line transform="translate(592,0)" x2="0" y2="5" stroke="#888" stroke-width="1" opacity="1"/><line transform="translate(624,0)" x2="0" y2="5" stroke="#888" stroke-width="1" opacity="1"/><line transform="translate(656,0)" x2="0" y2="5" stroke="#888" stroke-width="1" opacity="1"/><line transform="translate(688,0)" x2="0" y2="5" stroke="#888" stroke-width="1" opacity="1"/><line transform="translate(720,0)" x2="0" y2="5" stroke="#888" stroke-width="1" opacity="1"/><line transform="translate(752,0)" x2="0" y2="5" stroke="#888" stroke-width="1" opacity="1"/><line transform="translate(784,0)" x2="0" y2="5" stroke="#888" stroke-width="1" opacity="1"/></g><g class="mark-text role-axis-label" pointer-events="none"><text text-anchor="middle" transform="translate(16,15)" font-family="sans-serif" font-size="10px" fill="#000" opacity="1">16</text><text text-anchor="middle" transform="translate(48,15)" font-family="sans-serif" font-size="10px" fill="#000" opacity="1">18</text><text text-anchor="middle" transform="translate(80,15)" font-family="sans-serif" font-size="10px" fill="#000" opacity="1">20</text><text text-anchor="middle" transform="translate(112.00000000000001,15)" font-family="sans-serif" font-size="10px" fill="#000" opacity="1">22</text><text text-anchor="middle" transform="translate(144,15)" font-family="sans-serif" font-size="10px" fill="#000" opacity="1">24</text><text text-anchor="middle" transform="translate(176,15)" font-family="sans-serif" font-size="10px" fill="#000" opacity="1">26</text><text text-anchor="middle" transform="translate(208,15)" font-family="sans-serif" font-size="10px" fill="#000" opacity="1">28</text><text text-anchor="middle" transform="translate(240,15)" font-family="sans-serif" font-size="10px" fill="#000" opacity="1">30</text><text text-anchor="middle" transform="translate(272,15)" font-family="sans-serif" font-size="10px" fill="#000" opacity="1">32</text><text text-anchor="middle" transform="translate(304,15)" font-family="sans-serif" font-size="10px" fill="#000" opacity="1">34</text><text text-anchor="middle" transform="translate(336,15)" font-family="sans-serif" font-size="10px" fill="#000" opacity="1">36</text><text text-anchor="middle" transform="translate(368,15)" font-family="sans-serif" font-size="10px" fill="#000" opacity="1">38</text><text text-anchor="middle" transform="translate(400,15)" font-family="sans-serif" font-size="10px" fill="#000" opacity="1">40</text><text text-anchor="middle" transform="translate(432,15)" font-family="sans-serif" font-size="10px" fill="#000" opacity="1">42</text><text text-anchor="middle" transform="translate(463.99999999999994,15)" font-family="sans-serif" font-size="10px" fill="#000" opacity="1">44</text><text text-anchor="middle" transform="translate(496,15)" font-family="sans-serif" font-size="10px" fill="#000" opacity="1">46</text><text text-anchor="middle" transform="translate(528,15)" font-family="sans-serif" font-size="10px" fill="#000" opacity="1">48</text><text text-anchor="middle" transform="translate(560,15)" font-family="sans-serif" font-size="10px" fill="#000" opacity="1">50</text><text text-anchor="middle" transform="translate(592,15)" font-family="sans-serif" font-size="10px" fill="#000" opacity="1">52</text><text text-anchor="middle" transform="translate(624,15)" font-family="sans-serif" font-size="10px" fill="#000" opacity="1">54</text><text text-anchor="middle" transform="translate(656,15)" font-family="sans-serif" font-size="10px" fill="#000" opacity="1">56</text><text text-anchor="middle" transform="translate(688,15)" font-family="sans-serif" font-size="10px" fill="#000" opacity="1">58</text><text text-anchor="middle" transform="translate(720,15)" font-family="sans-serif" font-size="10px" fill="#000" opacity="1">60</text><text text-anchor="middle" transform="translate(752,15)" font-family="sans-serif" font-size="10px" fill="#000" opacity="1">62</text><text text-anchor="middle" transform="translate(784,15)" font-family="sans-serif" font-size="10px" fill="#000" opacity="1">64</text></g><g class="mark-rule role-axis-domain" pointer-events="none"><line transform="translate(0,0)" x2="800" y2="0" stroke="#888" stroke-width="1" opacity="1"/></g><g class="mark-text role-axis-title" pointer-events="none"><text text-anchor="middle" transform="translate(400,30)" font-family="sans-serif" font-size="11px" font-weight="bold" fill="#000" opacity="1">Response Time (us)</text></g></g><path class="foreground" aria-hidden="true" d="" pointer-events="none" display="none"/></g></g><g class="mark-group role-axis" role="graphics-symbol" aria-roledescription="axis" aria-label="Y-axis titled 'Count' for a linear scale with values from 0 to 7,000"><g transform="translate(0.5,0.5)"><path class="background" aria-hidden="true" d="M0,0h0v0h0Z" pointer-events="none"/><g><g class="mark-rule role-axis-tick" pointer-events="none"><line transform="translate(0,400)" x2="-5" y2="0" stroke="#888" stroke-width="1" opacity="1"/><line transform="translate(0,371)" x2="-5" y2="0" stroke="#888" stroke-width="1" opacity="1"/><line transform="translate(0,343)" x2="-5" y2="0" stroke="#888" stroke-width="1" opacity="1"/><line transform="translate(0,314)" x2="-5" y2="0" stroke="#888" stroke-width="1" opacity="1"/><line transform="translate(0,286)" x2="-5" y2="0" stroke="#888" stroke-width="1" opacity="1"/><line transform="translate(0,257)" x2="-5" y2="0" stroke="#888" stroke-width="1" opacity="1"/><line transform="translate(0,229)" x2="-5" y2="0" stroke="#888" stroke-width="1" opacity="1"/><line transform="translate(0,200)" x2="-5" y2="0" stroke="#888" stroke-width="1" opacity="1"/><line transform="translate(0,171)" x2="-5" y2="0" stroke="#888" stroke-width="1" opacity="1"/><line transform="translate(0,143)" x2="-5" y2="0" stroke="#888" stroke-width="1" opacity="1"/><line transform="translate(0,114)" x2="-5" y2="0" stroke="#888" stroke-width="1" opacity="1"/><line transform="translate(0,86)" x2="-5" y2="0" stroke="#888" stroke-width="1" opacity="1"/><line transform="translate(0,57)" x2="-5" y2="0" stroke="#888" stroke-width="1" opacity="1"/><line transform="translate(0,29)" x2="-5" y2="0" stroke="#888" stroke-width="1" opacity="1"/><line transform="translate(0,0)" x2="-5" y2="0" stroke="#888" stroke-width="1" opacity="1"/></g><g class="mark-text role-axis-label" pointer-events="none"><text text-anchor="end" transform="translate(-7,403)" font-family="sans-serif" font-size="10px" fill="#000" opacity="1">0</text><text text-anchor="end" transform="translate(-7,374.42857142857144)" font-family="sans-serif" font-size="10px" fill="#000" opacity="1">500</text><text text-anchor="end" transform="translate(-7,345.8571428571429)" font-family="sans-serif" font-size="10px" fill="#000" opacity="1">1,000</text><text text-anchor="end" transform="translate(-7,317.2857142857143)" font-family="sans-serif" font-size="10px" fill="#000" opacity="1">1,500</text><text text-anchor="end" transform="translate(-7,288.7142857142857)" font-family="sans-serif" font-size="10px" fill="#000" opacity="1">2,000</text><text text-anchor="end" transform="translate(-7,260.1428571428571)" font-family="sans-serif" font-size="10px" fill="#000" opacity="1">2,500</text><text text-anchor="end" transform="translate(-7,231.57142857142856)" font-family="sans-serif" font-size="10px" fill="#000" opacity="1">3,000</text><text text-anchor="end" transform="translate(-7,203)" font-family="sans-serif" font-size="10px" fill="#000" opacity="1">3,500</text><text text-anchor="end" transform="translate(-7,174.42857142857144)" font-family="sans-serif" font-size="10px" fill="#000" opacity="1">4,000</text><text text-anchor="end" transform="translate(-7,145.85714285714283)" font-family="sans-serif" font-size="10px" fill="#000" opacity="1">4,500</text><text text-anchor="end" transform="translate(-7,117.28571428571428)" font-family="sans-serif" font-size="10px" fill="#000" opacity="1">5,000</text><text text-anchor="end" transform="translate(-7,88.71428571428572)" font-family="sans-serif" font-size="10px" fill="#000" opacity="1">5,500</text><text text-anchor="end" transform="translate(-7,60.14285714285716)" font-family="sans-serif" font-size="10px" fill="#000" opacity="1">6,000</text><text text-anchor="end" transform="translate(-7,31.57142857142856)" font-family="sans-serif" font-size="10px" fill="#000" opacity="1">6,500</text><text text-anchor="end" transform="translate(-7,3)" font-family="sans-serif" font-size="10px" fill="#000" opacity="1">7,000</text></g><g class="mark-rule role-axis-domain" pointer-events="none"><line transform="translate(0,400)" x2="0" y2="-400" stroke="#888" stroke-width="1" opacity="1"/></g><g class="mark-text role-axis-title" pointer-events="none"><text text-anchor="middle" transform="translate(-36.0244140625,200) rotate(-90) translate(0,-2)" font-family="sans-serif" font-size="11px" font-weight="bold" fill="#000" opacity="1">Count</text></g></g><path class="foreground" aria-hidden="true" d="" pointer-events="none" display="none"/></g></g><g class="mark-rect role-mark marks" role="graphics-object" aria-roledescription="rect mark container"><path aria-label="Response Time (us): 63.744; Count: 1" role="graphics-symbol" aria-roledescription="bar" d="M777.4040000000001,399.9428571428572h5v0.05714285714282141h-5Z" fill="#4c78a8"/><path aria-label="Response Time (us): 26.112; Count: 1" role="graphics-symbol" aria-roledescription="bar" d="M175.29199999999997,399.9428571428572h5v0.05714285714282141h-5Z" fill="#4c78a8"/><path aria-label="Response Time (us): 25.344; Count: 1" role="graphics-symbol" aria-roledescription="bar" d="M163.00400000000002,399.9428571428572h5v0.05714285714282141h-5Z" fill="#4c78a8"/><path aria-label="Response Time (us): 24.832; Count: 2" role="graphics-symbol" aria-roledescription="bar" d="M154.812,399.88571428571424h5v0.11428571428575651h-5Z" fill="#4c78a8"/><path aria-label="Response Time (us): 24.576; Count: 15" role="graphics-symbol" aria-roledescription="bar" d="M150.71600000000007,399.14285714285717h5v0.8571428571428328h-5Z" fill="#4c78a8"/><path aria-label="Response Time (us): 24.32; Count: 33" role="graphics-symbol" aria-roledescription="bar" d="M146.62,398.11428571428576h5v1.8857142857142435h-5Z" fill="#4c78a8"/><path aria-label="Response Time (us): 24.064; Count: 78" role="graphics-symbol" aria-roledescription="bar" d="M142.52400000000006,395.54285714285714h5v4.4571428571428555h-5Z" fill="#4c78a8"/><path aria-label="Response Time (us): 23.808; Count: 198" role="graphics-symbol" aria-roledescription="bar" d="M138.42800000000005,388.6857142857143h5v11.314285714285688h-5Z" fill="#4c78a8"/><path aria-label="Response Time (us): 23.552; Count: 373" role="graphics-symbol" aria-roledescription="bar" d="M134.332,378.6857142857143h5v21.31428571428569h-5Z" fill="#4c78a8"/><path aria-label="Response Time (us): 23.296; Count: 714" role="graphics-symbol" aria-roledescription="bar" d="M130.23600000000005,359.2h5v40.80000000000001h-5Z" fill="#4c78a8"/><path aria-label="Response Time (us): 23.04; Count: 1330" role="graphics-symbol" aria-roledescription="bar" d="M126.14000000000004,324h5v76h-5Z" fill="#4c78a8"/><path aria-label="Response Time (us): 22.784; Count: 2098" role="graphics-symbol" aria-roledescription="bar" d="M122.04400000000004,280.1142857142857h5v119.8857142857143h-5Z" fill="#4c78a8"/><path aria-label="Response Time (us): 22.528; Count: 2870" role="graphics-symbol" aria-roledescription="bar" d="M117.94800000000005,236.00000000000003h5v163.99999999999997h-5Z" fill="#4c78a8"/><path aria-label="Response Time (us): 22.272; Count: 3780" role="graphics-symbol" aria-roledescription="bar" d="M113.85200000000003,184h5v216h-5Z" fill="#4c78a8"/><path aria-label="Response Time (us): 22.016; Count: 4825" role="graphics-symbol" aria-roledescription="bar" d="M109.75600000000003,124.28571428571429h5v275.7142857142857h-5Z" fill="#4c78a8"/><path aria-label="Response Time (us): 21.76; Count: 5412" role="graphics-symbol" aria-roledescription="bar" d="M105.66000000000004,90.74285714285715h5v309.25714285714287h-5Z" fill="#4c78a8"/><path aria-label="Response Time (us): 21.504; Count: 5763" role="graphics-symbol" aria-roledescription="bar" d="M101.56400000000002,70.68571428571428h5v329.3142857142857h-5Z" fill="#4c78a8"/><path aria-label="Response Time (us): 21.248; Count: 6429" role="graphics-symbol" aria-roledescription="bar" d="M97.46800000000002,32.628571428571405h5v367.3714285714286h-5Z" fill="#4c78a8"/><path aria-label="Response Time (us): 20.992; Count: 6536" role="graphics-symbol" aria-roledescription="bar" d="M93.37200000000001,26.514285714285712h5v373.48571428571427h-5Z" fill="#4c78a8"/><path aria-label="Response Time (us): 20.736; Count: 6258" role="graphics-symbol" aria-roledescription="bar" d="M89.27600000000007,42.39999999999999h5v357.6h-5Z" fill="#4c78a8"/><path aria-label="Response Time (us): 20.48; Count: 6364" role="graphics-symbol" aria-roledescription="bar" d="M85.18,36.34285714285714h5v363.65714285714284h-5Z" fill="#4c78a8"/><path aria-label="Response Time (us): 20.224; Count: 6357" role="graphics-symbol" aria-roledescription="bar" d="M81.084,36.74285714285715h5v363.25714285714287h-5Z" fill="#4c78a8"/><path aria-label="Response Time (us): 19.968; Count: 5966" role="graphics-symbol" aria-roledescription="bar" d="M76.98800000000006,59.085714285714275h5v340.9142857142857h-5Z" fill="#4c78a8"/><path aria-label="Response Time (us): 19.712; Count: 5372" role="graphics-symbol" aria-roledescription="bar" d="M72.892,93.02857142857141h5v306.9714285714286h-5Z" fill="#4c78a8"/><path aria-label="Response Time (us): 19.456; Count: 4879" role="graphics-symbol" aria-roledescription="bar" d="M68.79600000000005,121.20000000000002h5v278.79999999999995h-5Z" fill="#4c78a8"/><path aria-label="Response Time (us): 19.2; Count: 4052" role="graphics-symbol" aria-roledescription="bar" d="M64.70000000000005,168.45714285714286h5v231.54285714285714h-5Z" fill="#4c78a8"/><path aria-label="Response Time (us): 18.944; Count: 2866" role="graphics-symbol" aria-roledescription="bar" d="M60.603999999999985,236.2285714285714h5v163.7714285714286h-5Z" fill="#4c78a8"/><path aria-label="Response Time (us): 18.688; Count: 2136" role="graphics-symbol" aria-roledescription="bar" d="M56.50800000000004,277.9428571428571h5v122.05714285714288h-5Z" fill="#4c78a8"/><path aria-label="Response Time (us): 18.432; Count: 1342" role="graphics-symbol" aria-roledescription="bar" d="M52.41200000000004,323.3142857142857h5v76.68571428571431h-5Z" fill="#4c78a8"/><path aria-label="Response Time (us): 18.176; Count: 692" role="graphics-symbol" aria-roledescription="bar" d="M48.315999999999974,360.45714285714286h5v39.542857142857144h-5Z" fill="#4c78a8"/><path aria-label="Response Time (us): 17.92; Count: 339" role="graphics-symbol" aria-roledescription="bar" d="M44.22000000000003,380.6285714285714h5v19.371428571428623h-5Z" fill="#4c78a8"/><path aria-label="Response Time (us): 17.664; Count: 150" role="graphics-symbol" aria-roledescription="bar" d="M40.124000000000024,391.4285714285714h5v8.571428571428612h-5Z" fill="#4c78a8"/><path aria-label="Response Time (us): 17.408; Count: 52" role="graphics-symbol" aria-roledescription="bar" d="M36.02800000000002,397.0285714285714h5v2.9714285714285893h-5Z" fill="#4c78a8"/><path aria-label="Response Time (us): 17.152; Count: 18" role="graphics-symbol" aria-roledescription="bar" d="M31.932000000000016,398.9714285714286h5v1.0285714285714107h-5Z" fill="#4c78a8"/><path aria-label="Response Time (us): 16.64; Count: 1" role="graphics-symbol" aria-roledescription="bar" d="M23.74000000000001,399.9428571428572h5v0.05714285714282141h-5Z" fill="#4c78a8"/></g><g class="mark-group role-title"><g transform="translate(400,-22)"><path class="background" aria-hidden="true" d="M0,0h0v0h0Z" pointer-events="none"/><g><g class="mark-text role-title-text" role="graphics-symbol" aria-roledescription="title" aria-label="Title text 'response_simulator_isr_soft: bin_width_s=256.0ns, 87303 measurements'" pointer-events="none"><text text-anchor="middle" transform="translate(0,10)" font-family="sans-serif" font-size="13px" font-weight="bold" fill="#000" opacity="1">response_simulator_isr_soft: bin_width_s=256.0ns, 87303 measurements</text></g></g><path class="foreground" aria-hidden="true" d="" pointer-events="none" display="none"/></g></g></g><path class="foreground" aria-hidden="true" d="" display="none"/></g></g></g></svg>