<svg xmlns="http://www.w3.org/2000/svg" xmlns:xlink="http://www.w3.org/1999/xlink" version="1.1" class="marks" width="858" height="464" viewBox="0 0 858 464"><rect width="858" height="464" fill="white"/><g fill="none" stroke-miterlimit="10" transform="translate(53,27)"><g class="mark-group role-frame root" role="graphics-object" aria-roledescription="group mark container"><g transform="translate(0,0)"><path class="background" aria-hidden="true" d="M0.5,0.5h800v400h-800Z" stroke="#ddd"/><g><g class="mark-group role-axis" aria-hidden="true"><g transform="translate(0.5,400.5)"><path class="background" aria-hidden="true" d="M0,0h0v0h0Z" pointer-events="none"/><g><g class="mark-rule role-axis-grid" pointer-events="none"><line transform="translate(0,-400)" x2="0" y2="400" stroke="#ddd" stroke-width="1" opacity="1"/><line transform="translate(29,-400)" x2="0" y2="400" stroke="#ddd" stroke-width="1" opacity="1"/><line transform="translate(58,-400)" x2="0" y2="400" stroke="#ddd" stroke-width="1" opacity="1"/><line transform="translate(87,-400)" x2="0" y2="400" stroke="#ddd" stroke-width="1" opacity="1"/><line transform="translate(116,-400)" x2="0" y2="400" stroke="#ddd" stroke-width="1" opacity="1"/><line transform="translate(145,-400)" x2="0" y2="400" stroke="#ddd" stroke-width="1" opacity="1"/><line transform="translate(175,-400)" x2="0" y2="400" stroke="#ddd" stroke-width="1" opacity="1"/><line transform="translate(204,-400)" x2="0" y2="400" stroke="#ddd" stroke-width="1" opacity="1"/><line transform="translate(233,-400)" x2="0" y2="400" stroke="#ddd" stroke-width="1" opacity="1"/><line transform="translate(262,-400)" x2="0" y2="400" stroke="#ddd" stroke-width="1" opacity="1"/><line transform="translate(291,-400)" x2="0" y2="400" stroke="#ddd" stroke-width="1" opacity="1"/><line transform="translate(320,-400)" x2="0" y2="400" stroke="#ddd" stroke-width="1" opacity="1"/><line transform="translate(349,-400)" x2="0" y2="400" stroke="#ddd" stroke-width="1" opacity="1"/><line transform="translate(378,-400)" x2="0" y2="400" stroke="#ddd" stroke-width="1" opacity="1"/><line transform="translate(407,-400)" x2="0" y2="400" stroke="#ddd" stroke-width="1" opacity="1"/><line transform="translate(436,-400)" x2="0" y2="400" stroke="#ddd" stroke-width="1" opacity="1"/><line transform="translate(465,-400)" x2="0" y2="400" stroke="#ddd" stroke-width="1" opacity="1"/><line transform="translate(495,-400)" x2="0" y2="400" stroke="#ddd" stroke-width="1" opacity="1"/><line transform="translate(524,-400)" x2="0" y2="400" stroke="#ddd" stroke-width="1" opacity="1"/><line transform="translate(553,-400)" x2="0" y2="400" stroke="#ddd" stroke-width="1" opacity="1"/><line transform="translate(582,-400)" x2="0" y2="400" stroke="#ddd" stroke-width="1" opacity="1"/><line transform="translate(611,-400)" x2="0" y2="400" stroke="#ddd" stroke-width="1" opacity="1"/><line transform="translate(640,-400)" x2="0" y2="400" stroke="#ddd" stroke-width="1" opacity="1"/><line transform="translate(669,-400)" x2="0" y2="400" stroke="#ddd" stroke-width="1" opacity="1"/><line transform="translate(698,-400)" x2="0" y2="400" stroke="#ddd" stroke-width="1" opacity="1"/><line transform="translate(727,-400)" x2="0" y2="400" stroke="#ddd" stroke-width="1" opacity="1"/><line transform="translate(756,-400)" x2="0" y2="400" stroke="#ddd" stroke-width="1" opacity="1"/><line transform="translate(785,-400)" x2="0" y2="400" stroke="#ddd" stroke-width="1" opacity="1"/></g></g><path class="foreground" aria-hidden="true" d="" pointer-events="none" display="none"/></g></g><g class="mark-group role-axis" aria-hidden="true"><g transform="translate(0.5,0.5)"><path class="background" aria-hidden="true" d="M0,0h0v0h0Z" pointer-events="none"/><g><g class="mark-rule role-axis-grid" pointer-events="none"><line transform="translate(0,400)" x2="800" y2="0" stroke="#ddd" stroke-width="1" opacity="1"/><line transform="translate(0,371)" x2="800" y2="0" stroke="#ddd" stroke-width="1" opacity="1"/><line transform="translate(0,343)" x2="800" y2="0" stroke="#ddd" stroke-width="1" opacity="1"/><line transform="translate(0,314)" x2="800" y2="0" stroke="#ddd" stroke-width="1" opacity="1"/><line transform="translate(0,286)" x2="800" y2="0" stroke="#ddd" stroke-width="1" opacity="1"/><line transform="translate(0,257)" x2="800" y2="0" stroke="#ddd" stroke-width="1" opacity="1"/><line transform="translate(0,229)" x2="800" y2="0" stroke="#ddd" stroke-width="1" opacity="1"/><line transform="translate(0,200)" x2="800" y2="0" stroke="#ddd" stroke-width="1" opacity="1"/><line transform="translate(0,171)" x2="800" y2="0" stroke="#ddd" stroke-width="1" opacity="1"/><line transform="translate(0,143)" x2="800" y2="0" stroke="#ddd" stroke-width="1" opacity="1"/><line transform="translate(0,114)" x2="800" y2="0" stroke="#ddd" stroke-width="1" opacity="1"/><line transform="translate(0,86)" x2="800" y2="0" stroke="#ddd" stroke-width="1" opacity="1"/><line transform="translate(0,57)" x2="800" y2="0" stroke="#ddd" stroke-width="1" opacity="1"/><line transform="translate(0,29)" x2="800" y2="0" stroke="#ddd" stroke-width="1" opacity="1"/><line transform="translate(0,0)" x2="800" y2="0" stroke="#ddd" stroke-width="1" opacity="1"/></g></g><path class="foreground" aria-hidden="true" d="" pointer-events="none" display="none"/></g></g><g class="mark-group role-axis" role="graphics-symbol" aria-roledescription="axis" aria-label="X-axis titled 'Response Time (us)' for a linear scale with values from 10 to 65"><g transform="translate(0.5,400.5)"><path class="background" aria-hidden="true" d="M0,0h0v0h0Z" pointer-events="none"/><g><g class="mark-rule role-axis-tick" pointer-events="none"><line transform="translate(0,0)" x2="0" y2="5" stroke="#888" stroke-width="1" opacity="1"/><line transform="translate(29,0)" x2="0" y2="5" stroke="#888" stroke-width="1" opacity="1"/><line transform="translate(58,0)" x2="0" y2="5" stroke="#888" stroke-width="1" opacity="1"/><line transform="translate(87,0)" x2="0" y2="5" stroke="#888" stroke-width="1" opacity="1"/><line transform="translate(116,0)" x2="0" y2="5" stroke="#888" stroke-width="1" opacity="1"/><line transform="translate(145,0)" x2="0" y2="5" stroke="#888" stroke-width="1" opacity="1"/><line transform="translate(175,0)" x2="0" y2="5" stroke="#888" stroke-width="1" opacity="1"/><line transform="translate(204,0)" x2="0" y2="5" stroke="#888" stroke-width="1" opacity="1"/><line transform="translate(233,0)" x2="0" y2="5" stroke="#888" stroke-width="1" opacity="1"/><line transform="translate(262,0)" x2="0" y2="5" stroke="#888" stroke-width="1" opacity="1"/><line transform="translate(291,0)" x2="0" y2="5" stroke="#888" stroke-width="1" opacity="1"/><line transform="translate(320,0)" x2="0" y2="5" stroke="#888" stroke-width="1" opacity="1"/><line transform="translate(349,0)" x2="0" y2="5" stroke="#888" stroke-width="1" opacity="1"/><line transform="translate(378,0)" x2="0" y2="5" stroke="#888" stroke-width="1" opacity="1"/><line transform="translate(407,0)" x2="0" y2="5" stroke="#888" stroke-width="1" opacity="1"/><line transform="translate(436,0)" x2="0" y2="5" stroke="#888" stroke-width="1" opacity="1"/><line transform="translate(465,0)" x2="0" y2="5" stroke="#888" stroke-width="1" opacity="1"/><line transform="translate(495,0)" x2="0" y2="5" stroke="#888" stroke-width="1" opacity="1"/><line transform="translate(524,0)" x2="0" y2="5" stroke="#888" stroke-width="1" opacity="1"/><line transform="translate(553,0)" x2="0" y2="5" stroke="#888" stroke-width="1" opacity="1"/><line transform="translate(582,0)" x2="0" y2="5" stroke="#888" stroke-width="1" opacity="1"/><line transform="translate(611,0)" x2="0" y2="5" stroke="#888" stroke-width="1" opacity="1"/><line transform="translate(640,0)" x2="0" y2="5" stroke="#888" stroke-width="1" opacity="1"/><line transform="translate(669,0)" x2="0" y2="5" stroke="#888" stroke-width="1" opacity="1"/><line transform="translate(698,0)" x2="0" y2="5" stroke="#888" stroke-width="1" opacity="1"/><line transform="translate(727,0)" x2="0" y2="5" stroke="#888" stroke-width="1" opacity="1"/><line transform="translate(756,0)" x2="0" y2="5" stroke="#888" stroke-width="1" opacity="1"/><line transform="translate(785,0)" x2="0" y2="5" stroke="#888" stroke-width="1" opacity="1"/></g><g class="mark-text role-axis-label" pointer-events="none"><text text-anchor="start" transform="translate(0,15)" font-family="sans-serif" font-size="10px" fill="#000" opacity="1">10</text><text text-anchor="middle" transform="translate(29.09090909090909,15)" font-family="sans-serif" font-size="10px" fill="#000" opacity="1">12</text><text text-anchor="middle" transform="translate(58.18181818181818,15)" font-family="sans-serif" font-size="10px" fill="#000" opacity="1">14</text><text text-anchor="middle" transform="translate(87.27272727272727,15)" font-family="sans-serif" font-size="10px" fill="#000" opacity="1">16</text><text text-anchor="middle" transform="translate(116.36363636363636,15)" font-family="sans-serif" font-size="10px" fill="#000" opacity="1">18</text><text text-anchor="middle" transform="translate(145.45454545454547,15)" font-family="sans-serif" font-size="10px" fill="#000" opacity="1">20</text><text text-anchor="middle" transform="translate(174.54545454545453,15)" font-family="sans-serif" font-size="10px" fill="#000" opacity="1">22</text><text text-anchor="middle" transform="translate(203.63636363636363,15)" font-family="sans-serif" font-size="10px" fill="#000" opacity="1">24</text><text text-anchor="middle" transform="translate(232.72727272727272,15)" font-family="sans-serif" font-size="10px" fill="#000" opacity="1">26</text><text text-anchor="middle" transform="translate(261.8181818181818,15)" font-family="sans-serif" font-size="10px" fill="#000" opacity="1">28</text><text text-anchor="middle" transform="translate(290.90909090909093,15)" font-family="sans-serif" font-size="10px" fill="#000" opacity="1">30</text><text text-anchor="middle" transform="translate(320,15)" font-family="sans-serif" font-size="10px" fill="#000" opacity="1">32</text><text text-anchor="middle" transform="translate(349.09090909090907,15)" font-family="sans-serif" font-size="10px" fill="#000" opacity="1">34</text><text text-anchor="middle" transform="translate(378.1818181818182,15)" font-family="sans-serif" font-size="10px" fill="#000" opacity="1">36</text><text text-anchor="middle" transform="translate(407.27272727272725,15)" font-family="sans-serif" font-size="10px" fill="#000" opacity="1">38</text><text text-anchor="middle" transform="translate(436.3636363636363,15)" font-family="sans-serif" font-size="10px" fill="#000" opacity="1">40</text><text text-anchor="middle" transform="translate(465.45454545454544,15)" font-family="sans-serif" font-size="10px" fill="#000" opacity="1">42</text><text text-anchor="middle" transform="translate(494.5454545454545,15)" font-family="sans-serif" font-size="10px" fill="#000" opacity="1">44</text><text text-anchor="middle" transform="translate(523.6363636363636,15)" font-family="sans-serif" font-size="10px" fill="#000" opacity="1">46</text><text text-anchor="middle" transform="translate(552.7272727272727,15)" font-family="sans-serif" font-size="10px" fill="#000" opacity="1">48</text><text text-anchor="middle" transform="translate(581.8181818181819,15)" font-family="sans-serif" font-size="10px" fill="#000" opacity="1">50</text><text text-anchor="middle" transform="translate(610.909090909091,15)" font-family="sans-serif" font-size="10px" fill="#000" opacity="1">52</text><text text-anchor="middle" transform="translate(640,15)" font-family="sans-serif" font-size="10px" fill="#000" opacity="1">54</text><text text-anchor="middle" transform="translate(669.090909090909,15)" font-family="sans-serif" font-size="10px" fill="#000" opacity="1">56</text><text text-anchor="middle" transform="translate(698.1818181818181,15)" font-family="sans-serif" font-size="10px" fill="#000" opacity="1">58</text><text text-anchor="middle" transform="translate(727.2727272727273,15)" font-family="sans-serif" font-size="10px" fill="#000" opacity="1">60</text><text text-anchor="middle" transform="translate(756.3636363636364,15)" font-family="sans-serif" font-size="10px" fill="#000" opacity="1">62</text><text text-anchor="middle" transform="translate(785.4545454545455,15)" font-family="sans-serif" font-size="10px" fill="#000" opacity="1">64</text></g><g class="mark-rule role-axis-domain" pointer-events="none"><line transform="translate(0,0)" x2="800" y2="0" stroke="#888" stroke-width="1" opacity="1"/></g><g class="mark-text role-axis-title" pointer-events="none"><text text-anchor="middle" transform="translate(400,30)" font-family="sans-serif" font-size="11px" font-weight="bold" fill="#000" opacity="1">Response Time (us)</text></g></g><path class="foreground" aria-hidden="true" d="" pointer-events="none" display="none"/></g></g><g class="mark-group role-axis" role="graphics-symbol" aria-roledescription="axis" aria-label="Y-axis titled 'Count' for a linear scale with values from 0 to 7,000"><g transform="translate(0.5,0.5)"><path class="background" aria-hidden="true" d="M0,0h0v0h0Z" pointer-events="none"/><g><g class="mark-rule role-axis-tick" pointer-events="none"><line transform="translate(0,400)" x2="-5" y2="0" stroke="#888" stroke-width="1" opacity="1"/><line transform="translate(0,371)" x2="-5" y2="0" stroke="#888" stroke-width="1" opacity="1"/><line transform="translate(0,343)" x2="-5" y2="0" stroke="#888" stroke-width="1" opacity="1"/><line transform="translate(0,314)" x2="-5" y2="0" stroke="#888" stroke-width="1" opacity="1"/><line transform="translate(0,286)" x2="-5" y2="0" stroke="#888" stroke-width="1" opacity="1"/><line transform="translate(0,257)" x2="-5" y2="0" stroke="#888" stroke-width="1" opacity="1"/><line transform="translate(0,229)" x2="-5" y2="0" stroke="#888" stroke-width="1" opacity="1"/><line transform="translate(0,200)" x2="-5" y2="0" stroke="#888" stroke-width="1" opacity="1"/><line transform="translate(0,171)" x2="-5" y2="0" stroke="#888" stroke-width="1" opacity="1"/><line transform="translate(0,143)" x2="-5" y2="0" stroke="#888" stroke-width="1" opacity="1"/><line transform="translate(0,114)" x2="-5" y2="0" stroke="#888" stroke-width="1" opacity="1"/><line transform="translate(0,86)" x2="-5" y2="0" stroke="#888" stroke-width="1" opacity="1"/><line transform="translate(0,57)" x2="-5" y2="0" stroke="#888" stroke-width="1" opacity="1"/><line transform="translate(0,29)" x2="-5" y2="0" stroke="#888" stroke-width="1" opacity="1"/><line transform="translate(0,0)" x2="-5" y2="0" stroke="#888" stroke-width="1" opacity="1"/></g><g class="mark-text role-axis-label" pointer-events="none"><text text-anchor="end" transform="translate(-7,403)" font-family="sans-serif" font-size="10px" fill="#000" opacity="1">0</text><text text-anchor="end" transform="translate(-7,374.42857142857144)" font-family="sans-serif" font-size="10px" fill="#000" opacity="1">500</text><text text-anchor="end" transform="translate(-7,345.8571428571429)" font-family="sans-serif" font-size="10px" fill="#000" opacity="1">1,000</text><text text-anchor="end" transform="translate(-7,317.2857142857143)" font-family="sans-serif" font-size="10px" fill="#000" opacity="1">1,500</text><text text-anchor="end" transform="translate(-7,288.7142857142857)" font-family="sans-serif" font-size="10px" fill="#000" opacity="1">2,000</text><text text-anchor="end" transform="translate(-7,260.1428571428571)" font-family="sans-serif" font-size="10px" fill="#000" opacity="1">2,500</text><text text-anchor="end" transform="translate(-7,231.57142857142856)" font-family="sans-serif" font-size="10px" fill="#000" opacity="1">3,000</text><text text-anchor="end" transform="translate(-7,203)" font-family="sans-serif" font-size="10px" fill="#000" opacity="1">3,500</text><text text-anchor="end" transform="translate(-7,174.42857142857144)" font-family="sans-serif" font-size="10px" fill="#000" opacity="1">4,000</text><text text-anchor="end" transform="translate(-7,145.85714285714283)" font-family="sans-serif" font-size="10px" fill="#000" opacity="1">4,500</text><text text-anchor="end" transform="translate(-7,117.28571428571428)" font-family="sans-serif" font-size="10px" fill="#000" opacity="1">5,000</text><text text-anchor="end" transform="translate(-7,88.71428571428572)" font-family="sans-serif" font-size="10px" fill="#000" opacity="1">5,500</text><text text-anchor="end" transform="translate(-7,60.14285714285716)" font-family="sans-serif" font-size="10px" fill="#000" opacity="1">6,000</text><text text-anchor="end" transform="translate(-7,31.57142857142856)" font-family="sans-serif" font-size="10px" fill="#000" opacity="1">6,500</text><text text-anchor="end" transform="translate(-7,3)" font-family="sans-serif" font-size="10px" fill="#000" opacity="1">7,000</text></g><g class="mark-rule role-axis-domain" pointer-events="none"><line transform="translate(0,400)" x2="0" y2="-400" stroke="#888" stroke-width="1" opacity="1"/></g><g class="mark-text role-axis-title" pointer-events="none"><text text-anchor="middle" transform="translate(-36.0244140625,200) rotate(-90) translate(0,-2)" font-family="sans-serif" font-size="11px" font-weight="bold" fill="#000" opacity="1">Count</text></g></g><path class="foreground" aria-hidden="true" d="" pointer-events="none" display="none"/></g></g><g class="mark-rect role-mark marks" role="graphics-object" aria-roledescription="rect mark container"><path aria-label="Response Time (us): 63.12; Count: 1" role="graphics-symbol" aria-roledescription="bar" d="M770.1545454545455,399.9428571428572h5v0.05714285714282141h-5Z" fill="#4c78a8"/><path aria-label="Response Time (us): 23.6; Count: 1" role="graphics-symbol" aria-roledescription="bar" d="M195.31818181818184,399.9428571428572h5v0.05714285714282141h-5Z" fill="#4c78a8"/><path aria-label="Response Time (us): 17.376; Count: 1" role="graphics-symbol" aria-roledescription="bar" d="M104.78727272727274,399.9428571428572h5v0.05714285714282141h-5Z" fill="#4c78a8"/><path aria-label="Response Time (us): 16.976; Count: 2" role="graphics-symbol" aria-roledescription="bar" d="M98.96909090909095,399.88571428571424h5v0.11428571428575651h-5Z" fill="#4c78a8"/><path aria-label="Response Time (us): 16.96; Count: 4" role="graphics-symbol" aria-roledescription="bar" d="M98.73636363636366,399.7714285714286h5v0.22857142857139934h-5Z" fill="#4c78a8"/><path aria-label="Response Time (us): 16.768; Count: 6" role="graphics-symbol" aria-roledescription="bar" d="M95.94363636363637,399.65714285714284h5v0.34285714285715585h-5Z" fill="#4c78a8"/><path aria-label="Response Time (us): 16.752; Count: 7" role="graphics-symbol" aria-roledescription="bar" d="M95.71090909090913,399.6h5v0.39999999999997726h-5Z" fill="#4c78a8"/><path aria-label="Response Time (us): 16.56; Count: 20" role="graphics-symbol" aria-roledescription="bar" d="M92.91818181818185,398.85714285714283h5v1.1428571428571672h-5Z" fill="#4c78a8"/><path aria-label="Response Time (us): 16.544; Count: 7" role="graphics-symbol" aria-roledescription="bar" d="M92.68545454545455,399.6h5v0.39999999999997726h-5Z" fill="#4c78a8"/><path aria-label="Response Time (us): 16.368; Count: 29" role="graphics-symbol" aria-roledescription="bar" d="M90.12545454545452,398.34285714285716h5v1.6571428571428442h-5Z" fill="#4c78a8"/><path aria-label="Response Time (us): 16.352; Count: 61" role="graphics-symbol" aria-roledescription="bar" d="M89.89272727272729,396.51428571428573h5v3.4857142857142662h-5Z" fill="#4c78a8"/><path aria-label="Response Time (us): 16.336; Count: 8" role="graphics-symbol" aria-roledescription="bar" d="M89.66000000000003,399.54285714285714h5v0.4571428571428555h-5Z" fill="#4c78a8"/><path aria-label="Response Time (us): 16.176; Count: 5" role="graphics-symbol" aria-roledescription="bar" d="M87.3327272727273,399.7142857142857h5v0.2857142857142776h-5Z" fill="#4c78a8"/><path aria-label="Response Time (us): 16.16; Count: 107" role="graphics-symbol" aria-roledescription="bar" d="M87.10000000000001,393.8857142857143h5v6.1142857142857h-5Z" fill="#4c78a8"/><path aria-label="Response Time (us): 16.144; Count: 83" role="graphics-symbol" aria-roledescription="bar" d="M86.8672727272727,395.25714285714287h5v4.742857142857133h-5Z" fill="#4c78a8"/><path aria-label="Response Time (us): 16.128; Count: 1" role="graphics-symbol" aria-roledescription="bar" d="M86.63454545454552,399.9428571428572h5v0.05714285714282141h-5Z" fill="#4c78a8"/><path aria-label="Response Time (us): 15.984; Count: 2" role="graphics-symbol" aria-roledescription="bar" d="M84.54000000000003,399.88571428571424h5v0.11428571428575651h-5Z" fill="#4c78a8"/><path aria-label="Response Time (us): 15.968; Count: 57" role="graphics-symbol" aria-roledescription="bar" d="M84.30727272727272,396.74285714285713h5v3.257142857142867h-5Z" fill="#4c78a8"/><path aria-label="Response Time (us): 15.952; Count: 246" role="graphics-symbol" aria-roledescription="bar" d="M84.07454545454549,385.9428571428571h5v14.057142857142878h-5Z" fill="#4c78a8"/><path aria-label="Response Time (us): 15.936; Count: 100" role="graphics-symbol" aria-roledescription="bar" d="M83.84181818181821,394.28571428571433h5v5.714285714285666h-5Z" fill="#4c78a8"/><path aria-label="Response Time (us): 15.92; Count: 1" role="graphics-symbol" aria-roledescription="bar" d="M83.60909090909091,399.9428571428572h5v0.05714285714282141h-5Z" fill="#4c78a8"/><path aria-label="Response Time (us): 15.776; Count: 8" role="graphics-symbol" aria-roledescription="bar" d="M81.51454545454546,399.54285714285714h5v0.4571428571428555h-5Z" fill="#4c78a8"/><path aria-label="Response Time (us): 15.76; Count: 258" role="graphics-symbol" aria-roledescription="bar" d="M81.2818181818182,385.25714285714287h5v14.742857142857133h-5Z" fill="#4c78a8"/><path aria-label="Response Time (us): 15.744; Count: 487" role="graphics-symbol" aria-roledescription="bar" d="M81.0490909090909,372.1714285714286h5v27.828571428571422h-5Z" fill="#4c78a8"/><path aria-label="Response Time (us): 15.728; Count: 51" role="graphics-symbol" aria-roledescription="bar" d="M80.81636363636369,397.0857142857143h5v2.914285714285711h-5Z" fill="#4c78a8"/><path aria-label="Response Time (us): 15.568; Count: 66" role="graphics-symbol" aria-roledescription="bar" d="M78.48909090909093,396.2285714285714h5v3.7714285714286007h-5Z" fill="#4c78a8"/><path aria-label="Response Time (us): 15.552; Count: 812" role="graphics-symbol" aria-roledescription="bar" d="M78.25636363636363,353.6h5v46.39999999999998h-5Z" fill="#4c78a8"/><path aria-label="Response Time (us): 15.536; Count: 569" role="graphics-symbol" aria-roledescription="bar" d="M78.02363636363638,367.48571428571427h5v32.514285714285734h-5Z" fill="#4c78a8"/><path aria-label="Response Time (us): 15.52; Count: 18" role="graphics-symbol" aria-roledescription="bar" d="M77.79090909090911,398.9714285714286h5v1.0285714285714107h-5Z" fill="#4c78a8"/><path aria-label="Response Time (us): 15.376; Count: 3" role="graphics-symbol" aria-roledescription="bar" d="M75.69636363636363,399.8285714285714h5v0.17142857142857792h-5Z" fill="#4c78a8"/><path aria-label="Response Time (us): 15.36; Count: 428" role="graphics-symbol" aria-roledescription="bar" d="M75.46363636363638,375.54285714285714h5v24.457142857142856h-5Z" fill="#4c78a8"/><path aria-label="Response Time (us): 15.344; Count: 1621" role="graphics-symbol" aria-roledescription="bar" d="M75.23090909090911,307.37142857142857h5v92.62857142857143h-5Z" fill="#4c78a8"/><path aria-label="Response Time (us): 15.328; Count: 473" role="graphics-symbol" aria-roledescription="bar" d="M74.9981818181818,372.97142857142853h5v27.028571428571468h-5Z" fill="#4c78a8"/><path aria-label="Response Time (us): 15.312; Count: 8" role="graphics-symbol" aria-roledescription="bar" d="M74.76545454545456,399.54285714285714h5v0.4571428571428555h-5Z" fill="#4c78a8"/><path aria-label="Response Time (us): 15.168; Count: 56" role="graphics-symbol" aria-roledescription="bar" d="M72.6709090909091,396.8h5v3.1999999999999886h-5Z" fill="#4c78a8"/><path aria-label="Response Time (us): 15.152; Count: 1389" role="graphics-symbol" aria-roledescription="bar" d="M72.43818181818183,320.62857142857143h5v79.37142857142857h-5Z" fill="#4c78a8"/><path aria-label="Response Time (us): 15.136; Count: 2123" role="graphics-symbol" aria-roledescription="bar" d="M72.20545454545456,278.6857142857143h5v121.31428571428569h-5Z" fill="#4c78a8"/><path aria-label="Response Time (us): 15.12; Count: 186" role="graphics-symbol" aria-roledescription="bar" d="M71.9727272727273,389.37142857142857h5v10.628571428571433h-5Z" fill="#4c78a8"/><path aria-label="Response Time (us): 14.976; Count: 2" role="graphics-symbol" aria-roledescription="bar" d="M69.87818181818183,399.88571428571424h5v0.11428571428575651h-5Z" fill="#4c78a8"/><path aria-label="Response Time (us): 14.96; Count: 393" role="graphics-symbol" aria-roledescription="bar" d="M69.64545454545456,377.54285714285714h5v22.457142857142856h-5Z" fill="#4c78a8"/><path aria-label="Response Time (us): 14.944; Count: 3121" role="graphics-symbol" aria-roledescription="bar" d="M69.41272727272728,221.65714285714287h5v178.34285714285713h-5Z" fill="#4c78a8"/><path aria-label="Response Time (us): 14.928; Count: 1870" role="graphics-symbol" aria-roledescription="bar" d="M69.18000000000004,293.14285714285717h5v106.85714285714283h-5Z" fill="#4c78a8"/><path aria-label="Response Time (us): 14.912; Count: 49" role="graphics-symbol" aria-roledescription="bar" d="M68.94727272727273,397.2h5v2.8000000000000114h-5Z" fill="#4c78a8"/><path aria-label="Response Time (us): 14.768; Count: 21" role="graphics-symbol" aria-roledescription="bar" d="M66.85272727272731,398.8h5v1.1999999999999886h-5Z" fill="#4c78a8"/><path aria-label="Response Time (us): 14.752; Count: 1567" role="graphics-symbol" aria-roledescription="bar" d="M66.62000000000002,310.45714285714286h5v89.54285714285714h-5Z" fill="#4c78a8"/><path aria-label="Response Time (us): 14.736; Count: 4660" role="graphics-symbol" aria-roledescription="bar" d="M66.38727272727274,133.71428571428572h5v266.2857142857143h-5Z" fill="#4c78a8"/><path aria-label="Response Time (us): 14.72; Count: 1088" role="graphics-symbol" aria-roledescription="bar" d="M66.15454545454547,337.8285714285714h5v62.17142857142858h-5Z" fill="#4c78a8"/><path aria-label="Response Time (us): 14.704; Count: 9" role="graphics-symbol" aria-roledescription="bar" d="M65.9218181818182,399.48571428571427h5v0.5142857142857338h-5Z" fill="#4c78a8"/><path aria-label="Response Time (us): 14.56; Count: 264" role="graphics-symbol" aria-roledescription="bar" d="M63.82727272727273,384.9142857142857h5v15.085714285714289h-5Z" fill="#4c78a8"/><path aria-label="Response Time (us): 14.544; Count: 3752" role="graphics-symbol" aria-roledescription="bar" d="M63.59454545454548,185.6h5v214.4h-5Z" fill="#4c78a8"/><path aria-label="Response Time (us): 14.528; Count: 4525" role="graphics-symbol" aria-roledescription="bar" d="M63.361818181818194,141.42857142857142h5v258.57142857142856h-5Z" fill="#4c78a8"/><path aria-label="Response Time (us): 14.512; Count: 416" role="graphics-symbol" aria-roledescription="bar" d="M63.12909090909092,376.22857142857146h5v23.771428571428544h-5Z" fill="#4c78a8"/><path aria-label="Response Time (us): 14.368; Count: 7" role="graphics-symbol" aria-roledescription="bar" d="M61.03454545454545,399.6h5v0.39999999999997726h-5Z" fill="#4c78a8"/><path aria-label="Response Time (us): 14.352; Count: 1020" role="graphics-symbol" aria-roledescription="bar" d="M60.801818181818184,341.7142857142857h5v58.28571428571428h-5Z" fill="#4c78a8"/><path aria-label="Response Time (us): 14.336; Count: 6190" role="graphics-symbol" aria-roledescription="bar" d="M60.56909090909094,46.285714285714306h5v353.71428571428567h-5Z" fill="#4c78a8"/><path aria-label="Response Time (us): 14.32; Count: 3041" role="graphics-symbol" aria-roledescription="bar" d="M60.33636363636364,226.22857142857146h5v173.77142857142854h-5Z" fill="#4c78a8"/><path aria-label="Response Time (us): 14.304; Count: 75" role="graphics-symbol" aria-roledescription="bar" d="M60.10363636363637,395.7142857142857h5v4.285714285714278h-5Z" fill="#4c78a8"/><path aria-label="Response Time (us): 14.16; Count: 77" role="graphics-symbol" aria-roledescription="bar" d="M58.009090909090936,395.6h5v4.399999999999977h-5Z" fill="#4c78a8"/><path aria-label="Response Time (us): 14.144; Count: 2833" role="graphics-symbol" aria-roledescription="bar" d="M57.77636363636364,238.11428571428573h5v161.88571428571427h-5Z" fill="#4c78a8"/><path aria-label="Response Time (us): 14.128; Count: 6560" role="graphics-symbol" aria-roledescription="bar" d="M57.54363636363637,25.14285714285713h5v374.8571428571429h-5Z" fill="#4c78a8"/><path aria-label="Response Time (us): 14.112; Count: 1213" role="graphics-symbol" aria-roledescription="bar" d="M57.310909090909114,330.6857142857143h5v69.31428571428569h-5Z" fill="#4c78a8"/><path aria-label="Response Time (us): 14.096; Count: 11" role="graphics-symbol" aria-roledescription="bar" d="M57.07818181818182,399.37142857142857h5v0.6285714285714334h-5Z" fill="#4c78a8"/><path aria-label="Response Time (us): 13.968; Count: 1" role="graphics-symbol" aria-roledescription="bar" d="M55.21636363636363,399.9428571428572h5v0.05714285714282141h-5Z" fill="#4c78a8"/><path aria-label="Response Time (us): 13.952; Count: 429" role="graphics-symbol" aria-roledescription="bar" d="M54.98363636363639,375.48571428571427h5v24.514285714285734h-5Z" fill="#4c78a8"/><path aria-label="Response Time (us): 13.936; Count: 4785" role="graphics-symbol" aria-roledescription="bar" d="M54.75090909090908,126.57142857142856h5v273.42857142857144h-5Z" fill="#4c78a8"/><path aria-label="Response Time (us): 13.92; Count: 4760" role="graphics-symbol" aria-roledescription="bar" d="M54.518181818181816,127.99999999999999h5v272h-5Z" fill="#4c78a8"/><path aria-label="Response Time (us): 13.904; Count: 310" role="graphics-symbol" aria-roledescription="bar" d="M54.28545454545457,382.2857142857143h5v17.714285714285722h-5Z" fill="#4c78a8"/><path aria-label="Response Time (us): 13.76; Count: 20" role="graphics-symbol" aria-roledescription="bar" d="M52.19090909090909,398.85714285714283h5v1.1428571428571672h-5Z" fill="#4c78a8"/><path aria-label="Response Time (us): 13.744; Count: 1250" role="graphics-symbol" aria-roledescription="bar" d="M51.95818181818184,328.57142857142856h5v71.42857142857144h-5Z" fill="#4c78a8"/><path aria-label="Response Time (us): 13.728; Count: 5558" role="graphics-symbol" aria-roledescription="bar" d="M51.72545454545457,82.39999999999998h5v317.6h-5Z" fill="#4c78a8"/><path aria-label="Response Time (us): 13.712; Count: 2270" role="graphics-symbol" aria-roledescription="bar" d="M51.49272727272727,270.2857142857143h5v129.71428571428572h-5Z" fill="#4c78a8"/><path aria-label="Response Time (us): 13.696; Count: 35" role="graphics-symbol" aria-roledescription="bar" d="M51.26000000000002,398h5v2h-5Z" fill="#4c78a8"/><path aria-label="Response Time (us): 13.552; Count: 103" role="graphics-symbol" aria-roledescription="bar" d="M49.16545454545454,394.11428571428576h5v5.8857142857142435h-5Z" fill="#4c78a8"/><path aria-label="Response Time (us): 13.536; Count: 2338" role="graphics-symbol" aria-roledescription="bar" d="M48.9327272727273,266.4h5v133.60000000000002h-5Z" fill="#4c78a8"/><path aria-label="Response Time (us): 13.52; Count: 4431" role="graphics-symbol" aria-roledescription="bar" d="M48.700000000000024,146.8h5v253.2h-5Z" fill="#4c78a8"/><path aria-label="Response Time (us): 13.504; Count: 693" role="graphics-symbol" aria-roledescription="bar" d="M48.46727272727275,360.40000000000003h5v39.599999999999966h-5Z" fill="#4c78a8"/><path aria-label="Response Time (us): 13.488; Count: 5" role="graphics-symbol" aria-roledescription="bar" d="M48.23454545454544,399.7142857142857h5v0.2857142857142776h-5Z" fill="#4c78a8"/><path aria-label="Response Time (us): 13.344; Count: 310" role="graphics-symbol" aria-roledescription="bar" d="M46.140000000000015,382.2857142857143h5v17.714285714285722h-5Z" fill="#4c78a8"/><path aria-label="Response Time (us): 13.328; Count: 2882" role="graphics-symbol" aria-roledescription="bar" d="M45.90727272727272,235.31428571428572h5v164.68571428571428h-5Z" fill="#4c78a8"/><path aria-label="Response Time (us): 13.312; Count: 2303" role="graphics-symbol" aria-roledescription="bar" d="M45.674545454545466,268.40000000000003h5v131.59999999999997h-5Z" fill="#4c78a8"/><path aria-label="Response Time (us): 13.296; Count: 141" role="graphics-symbol" aria-roledescription="bar" d="M45.4418181818182,391.9428571428571h5v8.057142857142878h-5Z" fill="#4c78a8"/><path aria-label="Response Time (us): 13.152; Count: 8" role="graphics-symbol" aria-roledescription="bar" d="M43.347272727272745,399.54285714285714h5v0.4571428571428555h-5Z" fill="#4c78a8"/><path aria-label="Response Time (us): 13.136; Count: 742" role="graphics-symbol" aria-roledescription="bar" d="M43.11454545454547,357.6h5v42.39999999999998h-5Z" fill="#4c78a8"/><path aria-label="Response Time (us): 13.12; Count: 2382" role="graphics-symbol" aria-roledescription="bar" d="M42.8818181818182,263.8857142857143h5v136.1142857142857h-5Z" fill="#4c78a8"/><path aria-label="Response Time (us): 13.104; Count: 822" role="graphics-symbol" aria-roledescription="bar" d="M42.64909090909092,353.0285714285714h5v46.97142857142859h-5Z" fill="#4c78a8"/><path aria-label="Response Time (us): 13.088; Count: 13" role="graphics-symbol" aria-roledescription="bar" d="M42.41636363636365,399.25714285714287h5v0.7428571428571331h-5Z" fill="#4c78a8"/><path aria-label="Response Time (us): 12.944; Count: 31" role="graphics-symbol" aria-roledescription="bar" d="M40.321818181818195,398.2285714285714h5v1.7714285714286007h-5Z" fill="#4c78a8"/><path aria-label="Response Time (us): 12.928; Count: 913" role="graphics-symbol" aria-roledescription="bar" d="M40.08909090909092,347.8285714285714h5v52.17142857142858h-5Z" fill="#4c78a8"/><path aria-label="Response Time (us): 12.912; Count: 1376" role="graphics-symbol" aria-roledescription="bar" d="M39.856363636363646,321.37142857142857h5v78.62857142857143h-5Z" fill="#4c78a8"/><path aria-label="Response Time (us): 12.896; Count: 193" role="graphics-symbol" aria-roledescription="bar" d="M39.62363636363637,388.9714285714286h5v11.02857142857141h-5Z" fill="#4c78a8"/><path aria-label="Response Time (us): 12.752; Count: 4" role="graphics-symbol" aria-roledescription="bar" d="M37.52909090909092,399.7714285714286h5v0.22857142857139934h-5Z" fill="#4c78a8"/><path aria-label="Response Time (us): 12.736; Count: 136" role="graphics-symbol" aria-roledescription="bar" d="M37.296363636363644,392.2285714285714h5v7.771428571428601h-5Z" fill="#4c78a8"/><path aria-label="Response Time (us): 12.72; Count: 784" role="graphics-symbol" aria-roledescription="bar" d="M37.06363636363637,355.2h5v44.80000000000001h-5Z" fill="#4c78a8"/><path aria-label="Response Time (us): 12.704; Count: 517" role="graphics-symbol" aria-roledescription="bar" d="M36.8309090909091,370.45714285714286h5v29.542857142857144h-5Z" fill="#4c78a8"/><path aria-label="Response Time (us): 12.688; Count: 33" role="graphics-symbol" aria-roledescription="bar" d="M36.59818181818183,398.11428571428576h5v1.8857142857142435h-5Z" fill="#4c78a8"/><path aria-label="Response Time (us): 12.544; Count: 7" role="graphics-symbol" aria-roledescription="bar" d="M34.503636363636375,399.6h5v0.39999999999997726h-5Z" fill="#4c78a8"/><path aria-label="Response Time (us): 12.528; Count: 162" role="graphics-symbol" aria-roledescription="bar" d="M34.2709090909091,390.74285714285713h5v9.257142857142867h-5Z" fill="#4c78a8"/><path aria-label="Response Time (us): 12.512; Count: 507" role="graphics-symbol" aria-roledescription="bar" d="M34.038181818181855,371.02857142857147h5v28.971428571428532h-5Z" fill="#4c78a8"/><path aria-label="Response Time (us): 12.496; Count: 135" role="graphics-symbol" aria-roledescription="bar" d="M33.80545454545455,392.2857142857143h5v7.714285714285722h-5Z" fill="#4c78a8"/><path aria-label="Response Time (us): 12.48; Count: 1" role="graphics-symbol" aria-roledescription="bar" d="M33.57272727272728,399.9428571428572h5v0.05714285714282141h-5Z" fill="#4c78a8"/><path aria-label="Response Time (us): 12.336; Count: 15" role="graphics-symbol" aria-roledescription="bar" d="M31.478181818181824,399.14285714285717h5v0.8571428571428328h-5Z" fill="#4c78a8"/><path aria-label="Response Time (us): 12.32; Count: 163" role="graphics-symbol" aria-roledescription="bar" d="M31.24545454545455,390.6857142857143h5v9.314285714285688h-5Z" fill="#4c78a8"/><path aria-label="Response Time (us): 12.304; Count: 210" role="graphics-symbol" aria-roledescription="bar" d="M31.012727272727275,388h5v12h-5Z" fill="#4c78a8"/><path aria-label="Response Time (us): 12.288; Count: 23" role="graphics-symbol" aria-roledescription="bar" d="M30.78000000000003,398.68571428571425h5v1.3142857142857451h-5Z" fill="#4c78a8"/><path aria-label="Response Time (us): 12.128; Count: 23" role="graphics-symbol" aria-roledescription="bar" d="M28.452727272727298,398.68571428571425h5v1.3142857142857451h-5Z" fill="#4c78a8"/><path aria-label="Response Time (us): 12.112; Count: 102" role="graphics-symbol" aria-roledescription="bar" d="M28.220000000000002,394.1714285714286h5v5.828571428571422h-5Z" fill="#4c78a8"/><path aria-label="Response Time (us): 12.096; Count: 65" role="graphics-symbol" aria-roledescription="bar" d="M27.987272727272728,396.2857142857143h5v3.7142857142857224h-5Z" fill="#4c78a8"/><path aria-label="Response Time (us): 12.08; Count: 2" role="graphics-symbol" aria-roledescription="bar" d="M27.754545454545482,399.88571428571424h5v0.11428571428575651h-5Z" fill="#4c78a8"/><path aria-label="Response Time (us): 11.92; Count: 33" role="graphics-symbol" aria-roledescription="bar" d="M25.42727272727275,398.11428571428576h5v1.8857142857142435h-5Z" fill="#4c78a8"/><path aria-label="Response Time (us): 11.904; Count: 45" role="graphics-symbol" aria-roledescription="bar" d="M25.194545454545477,397.42857142857144h5v2.571428571428555h-5Z" fill="#4c78a8"/><path aria-label="Response Time (us): 11.888; Count: 11" role="graphics-symbol" aria-roledescription="bar" d="M24.96181818181818,399.37142857142857h5v0.6285714285714334h-5Z" fill="#4c78a8"/><path aria-label="Response Time (us): 11.712; Count: 5" role="graphics-symbol" aria-roledescription="bar" d="M22.401818181818204,399.7142857142857h5v0.2857142857142776h-5Z" fill="#4c78a8"/><path aria-label="Response Time (us): 11.696; Count: 10" role="graphics-symbol" aria-roledescription="bar" d="M22.169090909090933,399.42857142857144h5v0.5714285714285552h-5Z" fill="#4c78a8"/><path aria-label="Response Time (us): 11.68; Count: 1" role="graphics-symbol" aria-roledescription="bar" d="M21.93636363636363,399.9428571428572h5v0.05714285714282141h-5Z" fill="#4c78a8"/><path aria-label="Response Time (us): 11.52; Count: 1" role="graphics-symbol" aria-roledescription="bar" d="M19.609090909090927,399.9428571428572h5v0.05714285714282141h-5Z" fill="#4c78a8"/><path aria-label="Response Time (us): 11.504; Count: 3" role="graphics-symbol" aria-roledescription="bar" d="M19.37636363636363,399.8285714285714h5v0.17142857142857792h-5Z" fill="#4c78a8"/><path aria-label="Response Time (us): 11.488; Count: 4" role="graphics-symbol" aria-roledescription="bar" d="M19.143636363636382,399.7714285714286h5v0.22857142857139934h-5Z" fill="#4c78a8"/><path aria-label="Response Time (us): 11.312; Count: 1" role="graphics-symbol" aria-roledescription="bar" d="M16.58363636363638,399.9428571428572h5v0.05714285714282141h-5Z" fill="#4c78a8"/><path aria-label="Response Time (us): 11.296; Count: 2" role="graphics-symbol" aria-roledescription="bar" d="M16.35090909090908,399.88571428571424h5v0.11428571428575651h-5Z" fill="#4c78a8"/><path aria-label="Response Time (us): 11.104; Count: 1" role="graphics-symbol" aria-roledescription="bar" d="M13.558181818181833,399.9428571428572h5v0.05714285714282141h-5Z" fill="#4c78a8"/></g><g class="mark-group role-title"><g transform="translate(400,-22)"><path class="background" aria-hidden="true" d="M0,0h0v0h0Z" pointer-events="none"/><g><g class="mark-text role-title-text" role="graphics-symbol" aria-roledescription="title" aria-label="Title text 'response_simulator_isr_hard: bin_width_s=16.0ns, 94179 measurements'" pointer-events="none"><text text-anchor="middle" transform="translate(0,10)" font-family="sans-serif" font-size="13px" font-weight="bold" fill="#000" opacity="1">response_simulator_isr_hard: bin_width_s=16.0ns, 94179 measurements</text></g></g><path class="foreground" aria-hidden="true" d="" pointer-events="none" display="none"/></g></g></g><path class="foreground" aria-hidden="true" d="" display="none"/></g></g></g></svg>