<svg xmlns="http://www.w3.org/2000/svg" xmlns:xlink="http://www.w3.org/1999/xlink" version="1.1" class="marks" width="859" height="464" viewBox="0 0 859 464"><rect width="859" height="464" fill="white"/><g fill="none" stroke-miterlimit="10" transform="translate(53,27)"><g class="mark-group role-frame root" role="graphics-object" aria-roledescription="group mark container"><g transform="translate(0,0)"><path class="background" aria-hidden="true" d="M0.5,0.5h800v400h-800Z" stroke="#ddd"/><g><g class="mark-group role-axis" aria-hidden="true"><g transform="translate(0.5,400.5)"><path class="background" aria-hidden="true" d="M0,0h0v0h0Z" pointer-events="none"/><g><g class="mark-rule role-axis-grid" pointer-events="none"><line transform="translate(0,-400)" x2="0" y2="400" stroke="#ddd" stroke-width="1" opacity="1"/><line transform="translate(62,-400)" x2="0" y2="400" stroke="#ddd" stroke-width="1" opacity="1"/><line transform="translate(123,-400)" x2="0" y2="400" stroke="#ddd" stroke-width="1" opacity="1"/><line transform="translate(185,-400)" x2="0" y2="400" stroke="#ddd" stroke-width="1" opacity="1"/><line transform="translate(246,-400)" x2="0" y2="400" stroke="#ddd" stroke-width="1" opacity="1"/><line transform="translate(308,-400)" x2="0" y2="400" stroke="#ddd" stroke-width="1" opacity="1"/><line transform="translate(369,-400)" x2="0" y2="400" stroke="#ddd" stroke-width="1" opacity="1"/><line transform="translate(431,-400)" x2="0" y2="400" stroke="#ddd" stroke-width="1" opacity="1"/><line transform="translate(492,-400)" x2="0" y2="400" stroke="#ddd" stroke-width="1" opacity="1"/><line transform="translate(554,-400)" x2="0" y2="400" stroke="#ddd" stroke-width="1" opacity="1"/><line transform="translate(615,-400)" x2="0" y2="400" stroke="#ddd" stroke-width="1" opacity="1"/><line transform="translate(677,-400)" x2="0" y2="400" stroke="#ddd" stroke-width="1" opacity="1"/><line transform="translate(738,-400)" x2="0" y2="400" stroke="#ddd" stroke-width="1" opacity="1"/><line transform="translate(800,-400)" x2="0" y2="400" stroke="#ddd" stroke-width="1" opacity="1"/></g></g><path class="foreground" aria-hidden="true" d="" pointer-events="none" display="none"/></g></g><g class="mark-group role-axis" aria-hidden="true"><g transform="translate(0.5,0.5)"><path class="background" aria-hidden="true" d="M0,0h0v0h0Z" pointer-events="none"/><g><g class="mark-rule role-axis-grid" pointer-events="none"><line transform="translate(0,400)" x2="800" y2="0" stroke="#ddd" stroke-width="1" opacity="1"/><line transform="translate(0,369)" x2="800" y2="0" stroke="#ddd" stroke-width="1" opacity="1"/><line transform="translate(0,338)" x2="800" y2="0" stroke="#ddd" stroke-width="1" opacity="1"/><line transform="translate(0,308)" x2="800" y2="0" stroke="#ddd" stroke-width="1" opacity="1"/><line transform="translate(0,277)" x2="800" y2="0" stroke="#ddd" stroke-width="1" opacity="1"/><line transform="translate(0,246)" x2="800" y2="0" stroke="#ddd" stroke-width="1" opacity="1"/><line transform="translate(0,215)" x2="800" y2="0" stroke="#ddd" stroke-width="1" opacity="1"/><line transform="translate(0,185)" x2="800" y2="0" stroke="#ddd" stroke-width="1" opacity="1"/><line transform="translate(0,154)" x2="800" y2="0" stroke="#ddd" stroke-width="1" opacity="1"/><line transform="translate(0,123)" x2="800" y2="0" stroke="#ddd" stroke-width="1" opacity="1"/><line transform="translate(0,92)" x2="800" y2="0" stroke="#ddd" stroke-width="1" opacity="1"/><line transform="translate(0,62)" x2="800" y2="0" stroke="#ddd" stroke-width="1" opacity="1"/><line transform="translate(0,31)" x2="800" y2="0" stroke="#ddd" stroke-width="1" opacity="1"/><line transform="translate(0,0)" x2="800" y2="0" stroke="#ddd" stroke-width="1" opacity="1"/></g></g><path class="foreground" aria-hidden="true" d="" pointer-events="none" display="none"/></g></g><g class="mark-group role-axis" role="graphics-symbol" aria-roledescription="axis" aria-label="X-axis titled 'Response Time (us)' for a linear scale with values from 15 to 80"><g transform="translate(0.5,400.5)"><path class="background" aria-hidden="true" d="M0,0h0v0h0Z" pointer-events="none"/><g><g class="mark-rule role-axis-tick" pointer-events="none"><line transform="translate(0,0)" x2="0" y2="5" stroke="#888" stroke-width="1" opacity="1"/><line transform="translate(62,0)" x2="0" y2="5" stroke="#888" stroke-width="1" opacity="1"/><line transform="translate(123,0)" x2="0" y2="5" stroke="#888" stroke-width="1" opacity="1"/><line transform="translate(185,0)" x2="0" y2="5" stroke="#888" stroke-width="1" opacity="1"/><line transform="translate(246,0)" x2="0" y2="5" stroke="#888" stroke-width="1" opacity="1"/><line transform="translate(308,0)" x2="0" y2="5" stroke="#888" stroke-width="1" opacity="1"/><line transform="translate(369,0)" x2="0" y2="5" stroke="#888" stroke-width="1" opacity="1"/><line transform="translate(431,0)" x2="0" y2="5" stroke="#888" stroke-width="1" opacity="1"/><line transform="translate(492,0)" x2="0" y2="5" stroke="#888" stroke-width="1" opacity="1"/><line transform="translate(554,0)" x2="0" y2="5" stroke="#888" stroke-width="1" opacity="1"/><line transform="translate(615,0)" x2="0" y2="5" stroke="#888" stroke-width="1" opacity="1"/><line transform="translate(677,0)" x2="0" y2="5" stroke="#888" stroke-width="1" opacity="1"/><line transform="translate(738,0)" x2="0" y2="5" stroke="#888" stroke-width="1" opacity="1"/><line transform="translate(800,0)" x2="0" y2="5" stroke="#888" stroke-width="1" opacity="1"/></g><g class="mark-text role-axis-label" pointer-events="none"><text text-anchor="start" transform="translate(0,15)" font-family="sans-serif" font-size="10px" fill="#000" opacity="1">15</text><text text-anchor="middle" transform="translate(61.53846153846154,15)" font-family="sans-serif" font-size="10px" fill="#000" opacity="1">20</text><text text-anchor="middle" transform="translate(123.07692307692308,15)" font-family="sans-serif" font-size="10px" fill="#000" opacity="1">25</text><text text-anchor="middle" transform="translate(184.6153846153846,15)" font-family="sans-serif" font-size="10px" fill="#000" opacity="1">30</text><text text-anchor="middle" transform="translate(246.15384615384616,15)" font-family="sans-serif" font-size="10px" fill="#000" opacity="1">35</text><text text-anchor="middle" transform="translate(307.69230769230774,15)" font-family="sans-serif" font-size="10px" fill="#000" opacity="1">40</text><text text-anchor="middle" transform="translate(369.2307692307692,15)" font-family="sans-serif" font-size="10px" fill="#000" opacity="1">45</text><text text-anchor="middle" transform="translate(430.7692307692308,15)" font-family="sans-serif" font-size="10px" fill="#000" opacity="1">50</text><text text-anchor="middle" transform="translate(492.3076923076923,15)" font-family="sans-serif" font-size="10px" fill="#000" opacity="1">55</text><text text-anchor="middle" transform="translate(553.8461538461538,15)" font-family="sans-serif" font-size="10px" fill="#000" opacity="1">60</text><text text-anchor="middle" transform="translate(615.3846153846155,15)" font-family="sans-serif" font-size="10px" fill="#000" opacity="1">65</text><text text-anchor="middle" transform="translate(676.9230769230769,15)" font-family="sans-serif" font-size="10px" fill="#000" opacity="1">70</text><text text-anchor="middle" transform="translate(738.4615384615385,15)" font-family="sans-serif" font-size="10px" fill="#000" opacity="1">75</text><text text-anchor="end" transform="translate(800,15)" font-family="sans-serif" font-size="10px" fill="#000" opacity="1">80</text></g><g class="mark-rule role-axis-domain" pointer-events="none"><line transform="translate(0,0)" x2="800" y2="0" stroke="#888" stroke-width="1" opacity="1"/></g><g class="mark-text role-axis-title" pointer-events="none"><text text-anchor="middle" transform="translate(400,30)" font-family="sans-serif" font-size="11px" font-weight="bold" fill="#000" opacity="1">Response Time (us)</text></g></g><path class="foreground" aria-hidden="true" d="" pointer-events="none" display="none"/></g></g><g class="mark-group role-axis" role="graphics-symbol" aria-roledescription="axis" aria-label="Y-axis titled 'Count' for a linear scale with values from 0 to 6,500"><g transform="translate(0.5,0.5)"><path class="background" aria-hidden="true" d="M0,0h0v0h0Z" pointer-events="none"/><g><g class="mark-rule role-axis-tick" pointer-events="none"><line transform="translate(0,400)" x2="-5" y2="0" stroke="#888" stroke-width="1" opacity="1"/><line transform="translate(0,369)" x2="-5" y2="0" stroke="#888" stroke-width="1" opacity="1"/><line transform="translate(0,338)" x2="-5" y2="0" stroke="#888" stroke-width="1" opacity="1"/><line transform="translate(0,308)" x2="-5" y2="0" stroke="#888" stroke-width="1" opacity="1"/><line transform="translate(0,277)" x2="-5" y2="0" stroke="#888" stroke-width="1" opacity="1"/><line transform="translate(0,246)" x2="-5" y2="0" stroke="#888" stroke-width="1" opacity="1"/><line transform="translate(0,215)" x2="-5" y2="0" stroke="#888" stroke-width="1" opacity="1"/><line transform="translate(0,185)" x2="-5" y2="0" stroke="#888" stroke-width="1" opacity="1"/><line transform="translate(0,154)" x2="-5" y2="0" stroke="#888" stroke-width="1" opacity="1"/><line transform="translate(0,123)" x2="-5" y2="0" stroke="#888" stroke-width="1" opacity="1"/><line transform="translate(0,92)" x2="-5" y2="0" stroke="#888" stroke-width="1" opacity="1"/><line transform="translate(0,62)" x2="-5" y2="0" stroke="#888" stroke-width="1" opacity="1"/><line transform="translate(0,31)" x2="-5" y2="0" stroke="#888" stroke-width="1" opacity="1"/><line transform="translate(0,0)" x2="-5" y2="0" stroke="#888" stroke-width="1" opacity="1"/></g><g class="mark-text role-axis-label" pointer-events="none"><text text-anchor="end" transform="translate(-7,403)" font-family="sans-serif" font-size="10px" fill="#000" opacity="1">0</text><text text-anchor="end" transform="translate(-7,372.2307692307692)" font-family="sans-serif" font-size="10px" fill="#000" opacity="1">500</text><text text-anchor="end" transform="translate(-7,341.46153846153845)" font-family="sans-serif" font-size="10px" fill="#000" opacity="1">1,000</text><text text-anchor="end" transform="translate(-7,310.6923076923077)" font-family="sans-serif" font-size="10px" fill="#000" opacity="1">1,500</text><text text-anchor="end" transform="translate(-7,279.9230769230769)" font-family="sans-serif" font-size="10px" fill="#000" opacity="1">2,000</text><text text-anchor="end" transform="translate(-7,249.15384615384616)" font-family="sans-serif" font-size="10px" fill="#000" opacity="1">2,500</text><text text-anchor="end" transform="translate(-7,218.3846153846154)" font-family="sans-serif" font-size="10px" fill="#000" opacity="1">3,000</text><text text-anchor="end" transform="translate(-7,187.6153846153846)" font-family="sans-serif" font-size="10px" fill="#000" opacity="1">3,500</text><text text-anchor="end" transform="translate(-7,156.84615384615384)" font-family="sans-serif" font-size="10px" fill="#000" opacity="1">4,000</text><text text-anchor="end" transform="translate(-7,126.07692307692308)" font-family="sans-serif" font-size="10px" fill="#000" opacity="1">4,500</text><text text-anchor="end" transform="translate(-7,95.30769230769229)" font-family="sans-serif" font-size="10px" fill="#000" opacity="1">5,000</text><text text-anchor="end" transform="translate(-7,64.53846153846155)" font-family="sans-serif" font-size="10px" fill="#000" opacity="1">5,500</text><text text-anchor="end" transform="translate(-7,33.769230769230745)" font-family="sans-serif" font-size="10px" fill="#000" opacity="1">6,000</text><text text-anchor="end" transform="translate(-7,3)" font-family="sans-serif" font-size="10px" fill="#000" opacity="1">6,500</text></g><g class="mark-rule role-axis-domain" pointer-events="none"><line transform="translate(0,400)" x2="0" y2="-400" stroke="#888" stroke-width="1" opacity="1"/></g><g class="mark-text role-axis-title" pointer-events="none"><text text-anchor="middle" transform="translate(-36.0244140625,200) rotate(-90) translate(0,-2)" font-family="sans-serif" font-size="11px" font-weight="bold" fill="#000" opacity="1">Count</text></g></g><path class="foreground" aria-hidden="true" d="" pointer-events="none" display="none"/></g></g><g class="mark-rect role-mark marks" role="graphics-object" aria-roledescription="rect mark container"><path aria-label="Response Time (us): 78.336; Count: 1" role="graphics-symbol" aria-roledescription="bar" d="M777.02,399.9384615384615h5v0.06153846153847553h-5Z" fill="#4c78a8"/><path aria-label="Response Time (us): 25.568; Count: 1" role="graphics-symbol" aria-roledescription="bar" d="M127.56769230769237,399.9384615384615h5v0.06153846153847553h-5Z" fill="#4c78a8"/><path aria-label="Response Time (us): 24.176; Count: 1" role="graphics-symbol" aria-roledescription="bar" d="M110.43538461538463,399.9384615384615h5v0.06153846153847553h-5Z" fill="#4c78a8"/><path aria-label="Response Time (us): 23.984; Count: 1" role="graphics-symbol" aria-roledescription="bar" d="M108.0723076923077,399.9384615384615h5v0.06153846153847553h-5Z" fill="#4c78a8"/><path aria-label="Response Time (us): 23.792; Count: 3" role="graphics-symbol" aria-roledescription="bar" d="M105.70923076923079,399.8153846153846h5v0.1846153846154266h-5Z" fill="#4c78a8"/><path aria-label="Response Time (us): 23.776; Count: 1" role="graphics-symbol" aria-roledescription="bar" d="M105.5123076923077,399.9384615384615h5v0.06153846153847553h-5Z" fill="#4c78a8"/><path aria-label="Response Time (us): 23.584; Count: 19" role="graphics-symbol" aria-roledescription="bar" d="M103.14923076923077,398.83076923076925h5v1.1692307692307509h-5Z" fill="#4c78a8"/><path aria-label="Response Time (us): 23.568; Count: 7" role="graphics-symbol" aria-roledescription="bar" d="M102.95230769230771,399.5692307692308h5v0.43076923076921503h-5Z" fill="#4c78a8"/><path aria-label="Response Time (us): 23.392; Count: 9" role="graphics-symbol" aria-roledescription="bar" d="M100.7861538461539,399.44615384615383h5v0.5538461538461661h-5Z" fill="#4c78a8"/><path aria-label="Response Time (us): 23.376; Count: 32" role="graphics-symbol" aria-roledescription="bar" d="M100.58923076923078,398.03076923076924h5v1.9692307692307622h-5Z" fill="#4c78a8"/><path aria-label="Response Time (us): 23.36; Count: 3" role="graphics-symbol" aria-roledescription="bar" d="M100.39230769230768,399.8153846153846h5v0.1846153846154266h-5Z" fill="#4c78a8"/><path aria-label="Response Time (us): 23.184; Count: 41" role="graphics-symbol" aria-roledescription="bar" d="M98.22615384615386,397.4769230769231h5v2.5230769230769283h-5Z" fill="#4c78a8"/><path aria-label="Response Time (us): 23.168; Count: 49" role="graphics-symbol" aria-roledescription="bar" d="M98.0292307692308,396.9846153846154h5v3.015384615384619h-5Z" fill="#4c78a8"/><path aria-label="Response Time (us): 22.992; Count: 15" role="graphics-symbol" aria-roledescription="bar" d="M95.86307692307697,399.07692307692304h5v0.9230769230769624h-5Z" fill="#4c78a8"/><path aria-label="Response Time (us): 22.976; Count: 173" role="graphics-symbol" aria-roledescription="bar" d="M95.66615384615388,389.3538461538462h5v10.646153846153823h-5Z" fill="#4c78a8"/><path aria-label="Response Time (us): 22.96; Count: 48" role="graphics-symbol" aria-roledescription="bar" d="M95.46923076923078,397.0461538461538h5v2.9538461538462h-5Z" fill="#4c78a8"/><path aria-label="Response Time (us): 22.8; Count: 3" role="graphics-symbol" aria-roledescription="bar" d="M93.50000000000001,399.8153846153846h5v0.1846153846154266h-5Z" fill="#4c78a8"/><path aria-label="Response Time (us): 22.784; Count: 126" role="graphics-symbol" aria-roledescription="bar" d="M93.30307692307696,392.24615384615385h5v7.753846153846155h-5Z" fill="#4c78a8"/><path aria-label="Response Time (us): 22.768; Count: 283" role="graphics-symbol" aria-roledescription="bar" d="M93.1061538461539,382.5846153846154h5v17.415384615384596h-5Z" fill="#4c78a8"/><path aria-label="Response Time (us): 22.752; Count: 20" role="graphics-symbol" aria-roledescription="bar" d="M92.9092307692308,398.7692307692308h5v1.2307692307692264h-5Z" fill="#4c78a8"/><path aria-label="Response Time (us): 22.592; Count: 27" role="graphics-symbol" aria-roledescription="bar" d="M90.93999999999998,398.3384615384615h5v1.6615384615384983h-5Z" fill="#4c78a8"/><path aria-label="Response Time (us): 22.576; Count: 496" role="graphics-symbol" aria-roledescription="bar" d="M90.74307692307693,369.4769230769231h5v30.52307692307693h-5Z" fill="#4c78a8"/><path aria-label="Response Time (us): 22.56; Count: 324" role="graphics-symbol" aria-roledescription="bar" d="M90.54615384615389,380.0615384615385h5v19.938461538461524h-5Z" fill="#4c78a8"/><path aria-label="Response Time (us): 22.544; Count: 8" role="graphics-symbol" aria-roledescription="bar" d="M90.34923076923081,399.5076923076923h5v0.49230769230769056h-5Z" fill="#4c78a8"/><path aria-label="Response Time (us): 22.384; Count: 237" role="graphics-symbol" aria-roledescription="bar" d="M88.38000000000001,385.41538461538465h5v14.584615384615347h-5Z" fill="#4c78a8"/><path aria-label="Response Time (us): 22.368; Count: 1133" role="graphics-symbol" aria-roledescription="bar" d="M88.18307692307691,330.2769230769231h5v69.72307692307692h-5Z" fill="#4c78a8"/><path aria-label="Response Time (us): 22.352; Count: 210" role="graphics-symbol" aria-roledescription="bar" d="M87.9861538461539,387.0769230769231h5v12.923076923076906h-5Z" fill="#4c78a8"/><path aria-label="Response Time (us): 22.336; Count: 1" role="graphics-symbol" aria-roledescription="bar" d="M87.7892307692308,399.9384615384615h5v0.06153846153847553h-5Z" fill="#4c78a8"/><path aria-label="Response Time (us): 22.192; Count: 30" role="graphics-symbol" aria-roledescription="bar" d="M86.01692307692308,398.1538461538462h5v1.8461538461538112h-5Z" fill="#4c78a8"/><path aria-label="Response Time (us): 22.176; Count: 1016" role="graphics-symbol" aria-roledescription="bar" d="M85.82000000000002,337.4769230769231h5v62.52307692307693h-5Z" fill="#4c78a8"/><path aria-label="Response Time (us): 22.16; Count: 1469" role="graphics-symbol" aria-roledescription="bar" d="M85.62307692307692,309.6h5v90.39999999999998h-5Z" fill="#4c78a8"/><path aria-label="Response Time (us): 22.144; Count: 96" role="graphics-symbol" aria-roledescription="bar" d="M85.42615384615382,394.0923076923077h5v5.907692307692287h-5Z" fill="#4c78a8"/><path aria-label="Response Time (us): 21.984; Count: 260" role="graphics-symbol" aria-roledescription="bar" d="M83.4569230769231,384h5v16h-5Z" fill="#4c78a8"/><path aria-label="Response Time (us): 21.968; Count: 2312" role="graphics-symbol" aria-roledescription="bar" d="M83.26,257.7230769230769h5v142.27692307692308h-5Z" fill="#4c78a8"/><path aria-label="Response Time (us): 21.952; Count: 1290" role="graphics-symbol" aria-roledescription="bar" d="M83.06307692307695,320.61538461538464h5v79.38461538461536h-5Z" fill="#4c78a8"/><path aria-label="Response Time (us): 21.936; Count: 21" role="graphics-symbol" aria-roledescription="bar" d="M82.86615384615385,398.7076923076923h5v1.292307692307702h-5Z" fill="#4c78a8"/><path aria-label="Response Time (us): 21.792; Count: 17" role="graphics-symbol" aria-roledescription="bar" d="M81.09384615384617,398.95384615384614h5v1.0461538461538566h-5Z" fill="#4c78a8"/><path aria-label="Response Time (us): 21.776; Count: 1231" role="graphics-symbol" aria-roledescription="bar" d="M80.89692307692312,324.24615384615385h5v75.75384615384615h-5Z" fill="#4c78a8"/><path aria-label="Response Time (us): 21.76; Count: 3607" role="graphics-symbol" aria-roledescription="bar" d="M80.70000000000002,178.0307692307692h5v221.9692307692308h-5Z" fill="#4c78a8"/><path aria-label="Response Time (us): 21.744; Count: 664" role="graphics-symbol" aria-roledescription="bar" d="M80.50307692307692,359.1384615384615h5v40.86153846153849h-5Z" fill="#4c78a8"/><path aria-label="Response Time (us): 21.584; Count: 162" role="graphics-symbol" aria-roledescription="bar" d="M78.53384615384618,390.03076923076924h5v9.969230769230762h-5Z" fill="#4c78a8"/><path aria-label="Response Time (us): 21.568; Count: 3307" role="graphics-symbol" aria-roledescription="bar" d="M78.3369230769231,196.4923076923077h5v203.5076923076923h-5Z" fill="#4c78a8"/><path aria-label="Response Time (us): 21.552; Count: 3630" role="graphics-symbol" aria-roledescription="bar" d="M78.14,176.6153846153846h5v223.3846153846154h-5Z" fill="#4c78a8"/><path aria-label="Response Time (us): 21.536; Count: 214" role="graphics-symbol" aria-roledescription="bar" d="M77.94307692307694,386.83076923076925h5v13.16923076923075h-5Z" fill="#4c78a8"/><path aria-label="Response Time (us): 21.392; Count: 6" role="graphics-symbol" aria-roledescription="bar" d="M76.17076923076922,399.63076923076926h5v0.3692307692307395h-5Z" fill="#4c78a8"/><path aria-label="Response Time (us): 21.376; Count: 984" role="graphics-symbol" aria-roledescription="bar" d="M75.97384615384617,339.44615384615383h5v60.553846153846166h-5Z" fill="#4c78a8"/><path aria-label="Response Time (us): 21.36; Count: 5531" role="graphics-symbol" aria-roledescription="bar" d="M75.77692307692311,59.630769230769246h5v340.36923076923074h-5Z" fill="#4c78a8"/><path aria-label="Response Time (us): 21.344; Count: 2289" role="graphics-symbol" aria-roledescription="bar" d="M75.58000000000001,259.1384615384615h5v140.8615384615385h-5Z" fill="#4c78a8"/><path aria-label="Response Time (us): 21.328; Count: 30" role="graphics-symbol" aria-roledescription="bar" d="M75.38307692307691,398.1538461538462h5v1.8461538461538112h-5Z" fill="#4c78a8"/><path aria-label="Response Time (us): 21.184; Count: 81" role="graphics-symbol" aria-roledescription="bar" d="M73.61076923076925,395.0153846153846h5v4.984615384615381h-5Z" fill="#4c78a8"/><path aria-label="Response Time (us): 21.168; Count: 2870" role="graphics-symbol" aria-roledescription="bar" d="M73.4138461538462,223.3846153846154h5v176.6153846153846h-5Z" fill="#4c78a8"/><path aria-label="Response Time (us): 21.152; Count: 5944" role="graphics-symbol" aria-roledescription="bar" d="M73.2169230769231,34.21538461538462h5v365.7846153846154h-5Z" fill="#4c78a8"/><path aria-label="Response Time (us): 21.136; Count: 883" role="graphics-symbol" aria-roledescription="bar" d="M73.02000000000004,345.66153846153844h5v54.33846153846156h-5Z" fill="#4c78a8"/><path aria-label="Response Time (us): 21.12; Count: 4" role="graphics-symbol" aria-roledescription="bar" d="M72.82307692307694,399.75384615384615h5v0.24615384615384528h-5Z" fill="#4c78a8"/><path aria-label="Response Time (us): 20.992; Count: 2" role="graphics-symbol" aria-roledescription="bar" d="M71.24769230769232,399.87692307692305h5v0.12307692307695106h-5Z" fill="#4c78a8"/><path aria-label="Response Time (us): 20.976; Count: 467" role="graphics-symbol" aria-roledescription="bar" d="M71.05076923076922,371.26153846153846h5v28.738461538461536h-5Z" fill="#4c78a8"/><path aria-label="Response Time (us): 20.96; Count: 5314" role="graphics-symbol" aria-roledescription="bar" d="M70.85384615384616,72.98461538461538h5v327.0153846153846h-5Z" fill="#4c78a8"/><path aria-label="Response Time (us): 20.944; Count: 4091" role="graphics-symbol" aria-roledescription="bar" d="M70.6569230769231,148.24615384615382h5v251.75384615384618h-5Z" fill="#4c78a8"/><path aria-label="Response Time (us): 20.928; Count: 203" role="graphics-symbol" aria-roledescription="bar" d="M70.46000000000001,387.5076923076923h5v12.49230769230769h-5Z" fill="#4c78a8"/><path aria-label="Response Time (us): 20.784; Count: 27" role="graphics-symbol" aria-roledescription="bar" d="M68.68769230769234,398.3384615384615h5v1.6615384615384983h-5Z" fill="#4c78a8"/><path aria-label="Response Time (us): 20.768; Count: 1602" role="graphics-symbol" aria-roledescription="bar" d="M68.49076923076923,301.4153846153846h5v98.5846153846154h-5Z" fill="#4c78a8"/><path aria-label="Response Time (us): 20.752; Count: 6169" role="graphics-symbol" aria-roledescription="bar" d="M68.29384615384615,20.369230769230782h5v379.6307692307692h-5Z" fill="#4c78a8"/><path aria-label="Response Time (us): 20.736; Count: 1875" role="graphics-symbol" aria-roledescription="bar" d="M68.09692307692312,284.61538461538464h5v115.38461538461536h-5Z" fill="#4c78a8"/><path aria-label="Response Time (us): 20.72; Count: 21" role="graphics-symbol" aria-roledescription="bar" d="M67.90000000000003,398.7076923076923h5v1.292307692307702h-5Z" fill="#4c78a8"/><path aria-label="Response Time (us): 20.576; Count: 155" role="graphics-symbol" aria-roledescription="bar" d="M66.12769230769231,390.46153846153845h5v9.538461538461547h-5Z" fill="#4c78a8"/><path aria-label="Response Time (us): 20.56; Count: 3312" role="graphics-symbol" aria-roledescription="bar" d="M65.93076923076922,196.1846153846154h5v203.8153846153846h-5Z" fill="#4c78a8"/><path aria-label="Response Time (us): 20.544; Count: 4501" role="graphics-symbol" aria-roledescription="bar" d="M65.73384615384616,123.01538461538462h5v276.9846153846154h-5Z" fill="#4c78a8"/><path aria-label="Response Time (us): 20.528; Count: 553" role="graphics-symbol" aria-roledescription="bar" d="M65.5369230769231,365.96923076923076h5v34.03076923076924h-5Z" fill="#4c78a8"/><path aria-label="Response Time (us): 20.512; Count: 3" role="graphics-symbol" aria-roledescription="bar" d="M65.34000000000005,399.8153846153846h5v0.1846153846154266h-5Z" fill="#4c78a8"/><path aria-label="Response Time (us): 20.384; Count: 1" role="graphics-symbol" aria-roledescription="bar" d="M63.76461538461538,399.9384615384615h5v0.06153846153847553h-5Z" fill="#4c78a8"/><path aria-label="Response Time (us): 20.368; Count: 543" role="graphics-symbol" aria-roledescription="bar" d="M63.56769230769234,366.5846153846154h5v33.415384615384596h-5Z" fill="#4c78a8"/><path aria-label="Response Time (us): 20.352; Count: 3832" role="graphics-symbol" aria-roledescription="bar" d="M63.37076923076923,164.18461538461537h5v235.81538461538463h-5Z" fill="#4c78a8"/><path aria-label="Response Time (us): 20.336; Count: 2224" role="graphics-symbol" aria-roledescription="bar" d="M63.17384615384614,263.13846153846157h5v136.86153846153843h-5Z" fill="#4c78a8"/><path aria-label="Response Time (us): 20.32; Count: 79" role="graphics-symbol" aria-roledescription="bar" d="M62.97692307692307,395.1384615384615h5v4.861538461538487h-5Z" fill="#4c78a8"/><path aria-label="Response Time (us): 20.176; Count: 30" role="graphics-symbol" aria-roledescription="bar" d="M61.2046153846154,398.1538461538462h5v1.8461538461538112h-5Z" fill="#4c78a8"/><path aria-label="Response Time (us): 20.16; Count: 1171" role="graphics-symbol" aria-roledescription="bar" d="M61.00769230769231,327.9384615384616h5v72.06153846153842h-5Z" fill="#4c78a8"/><path aria-label="Response Time (us): 20.144; Count: 2925" role="graphics-symbol" aria-roledescription="bar" d="M60.81076923076926,220.00000000000003h5v179.99999999999997h-5Z" fill="#4c78a8"/><path aria-label="Response Time (us): 20.128; Count: 722" role="graphics-symbol" aria-roledescription="bar" d="M60.613846153846154,355.5692307692308h5v44.430769230769215h-5Z" fill="#4c78a8"/><path aria-label="Response Time (us): 20.112; Count: 5" role="graphics-symbol" aria-roledescription="bar" d="M60.41692307692306,399.6923076923077h5v0.3076923076923208h-5Z" fill="#4c78a8"/><path aria-label="Response Time (us): 19.968; Count: 123" role="graphics-symbol" aria-roledescription="bar" d="M58.64461538461543,392.4307692307692h5v7.569230769230785h-5Z" fill="#4c78a8"/><path aria-label="Response Time (us): 19.952; Count: 1383" role="graphics-symbol" aria-roledescription="bar" d="M58.44769230769232,314.89230769230767h5v85.10769230769233h-5Z" fill="#4c78a8"/><path aria-label="Response Time (us): 19.936; Count: 1478" role="graphics-symbol" aria-roledescription="bar" d="M58.25076923076923,309.04615384615386h5v90.95384615384614h-5Z" fill="#4c78a8"/><path aria-label="Response Time (us): 19.92; Count: 160" role="graphics-symbol" aria-roledescription="bar" d="M58.05384615384618,390.1538461538462h5v9.846153846153811h-5Z" fill="#4c78a8"/><path aria-label="Response Time (us): 19.776; Count: 1" role="graphics-symbol" aria-roledescription="bar" d="M56.28153846153851,399.9384615384615h5v0.06153846153847553h-5Z" fill="#4c78a8"/><path aria-label="Response Time (us): 19.76; Count: 258" role="graphics-symbol" aria-roledescription="bar" d="M56.084615384615404,384.12307692307695h5v15.876923076923049h-5Z" fill="#4c78a8"/><path aria-label="Response Time (us): 19.744; Count: 1219" role="graphics-symbol" aria-roledescription="bar" d="M55.887692307692355,324.9846153846154h5v75.01538461538462h-5Z" fill="#4c78a8"/><path aria-label="Response Time (us): 19.728; Count: 515" role="graphics-symbol" aria-roledescription="bar" d="M55.69076923076925,368.3076923076923h5v31.69230769230768h-5Z" fill="#4c78a8"/><path aria-label="Response Time (us): 19.712; Count: 21" role="graphics-symbol" aria-roledescription="bar" d="M55.49384615384615,398.7076923076923h5v1.292307692307702h-5Z" fill="#4c78a8"/><path aria-label="Response Time (us): 19.568; Count: 18" role="graphics-symbol" aria-roledescription="bar" d="M53.72153846153848,398.8923076923077h5v1.1076923076922753h-5Z" fill="#4c78a8"/><path aria-label="Response Time (us): 19.552; Count: 389" role="graphics-symbol" aria-roledescription="bar" d="M53.52461538461543,376.0615384615385h5v23.938461538461524h-5Z" fill="#4c78a8"/><path aria-label="Response Time (us): 19.536; Count: 605" role="graphics-symbol" aria-roledescription="bar" d="M53.327692307692324,362.7692307692308h5v37.230769230769226h-5Z" fill="#4c78a8"/><path aria-label="Response Time (us): 19.52; Count: 130" role="graphics-symbol" aria-roledescription="bar" d="M53.130769230769275,392h5v8h-5Z" fill="#4c78a8"/><path aria-label="Response Time (us): 19.36; Count: 32" role="graphics-symbol" aria-roledescription="bar" d="M51.16153846153845,398.03076923076924h5v1.9692307692307622h-5Z" fill="#4c78a8"/><path aria-label="Response Time (us): 19.344; Count: 272" role="graphics-symbol" aria-roledescription="bar" d="M50.9646153846154,383.26153846153846h5v16.738461538461536h-5Z" fill="#4c78a8"/><path aria-label="Response Time (us): 19.328; Count: 224" role="graphics-symbol" aria-roledescription="bar" d="M50.76769230769235,386.2153846153846h5v13.784615384615392h-5Z" fill="#4c78a8"/><path aria-label="Response Time (us): 19.312; Count: 15" role="graphics-symbol" aria-roledescription="bar" d="M50.570769230769244,399.07692307692304h5v0.9230769230769624h-5Z" fill="#4c78a8"/><path aria-label="Response Time (us): 19.168; Count: 2" role="graphics-symbol" aria-roledescription="bar" d="M48.798461538461524,399.87692307692305h5v0.12307692307695106h-5Z" fill="#4c78a8"/><path aria-label="Response Time (us): 19.152; Count: 61" role="graphics-symbol" aria-roledescription="bar" d="M48.601538461538475,396.24615384615385h5v3.7538461538461547h-5Z" fill="#4c78a8"/><path aria-label="Response Time (us): 19.136; Count: 171" role="graphics-symbol" aria-roledescription="bar" d="M48.40461538461541,389.4769230769231h5v10.523076923076928h-5Z" fill="#4c78a8"/><path aria-label="Response Time (us): 19.12; Count: 52" role="graphics-symbol" aria-roledescription="bar" d="M48.20769230769232,396.8h5v3.1999999999999886h-5Z" fill="#4c78a8"/><path aria-label="Response Time (us): 19.104; Count: 4" role="graphics-symbol" aria-roledescription="bar" d="M48.01076923076927,399.75384615384615h5v0.24615384615384528h-5Z" fill="#4c78a8"/><path aria-label="Response Time (us): 18.96; Count: 6" role="graphics-symbol" aria-roledescription="bar" d="M46.23846153846155,399.63076923076926h5v0.3692307692307395h-5Z" fill="#4c78a8"/><path aria-label="Response Time (us): 18.944; Count: 45" role="graphics-symbol" aria-roledescription="bar" d="M46.04153846153845,397.2307692307692h5v2.7692307692307736h-5Z" fill="#4c78a8"/><path aria-label="Response Time (us): 18.928; Count: 67" role="graphics-symbol" aria-roledescription="bar" d="M45.844615384615395,395.87692307692305h5v4.123076923076951h-5Z" fill="#4c78a8"/><path aria-label="Response Time (us): 18.912; Count: 7" role="graphics-symbol" aria-roledescription="bar" d="M45.64769230769234,399.5692307692308h5v0.43076923076921503h-5Z" fill="#4c78a8"/><path aria-label="Response Time (us): 18.752; Count: 7" role="graphics-symbol" aria-roledescription="bar" d="M43.67846153846157,399.5692307692308h5v0.43076923076921503h-5Z" fill="#4c78a8"/><path aria-label="Response Time (us): 18.736; Count: 16" role="graphics-symbol" aria-roledescription="bar" d="M43.48153846153847,399.0153846153846h5v0.9846153846153811h-5Z" fill="#4c78a8"/><path aria-label="Response Time (us): 18.72; Count: 12" role="graphics-symbol" aria-roledescription="bar" d="M43.28461538461537,399.26153846153846h5v0.7384615384615358h-5Z" fill="#4c78a8"/><path aria-label="Response Time (us): 18.544; Count: 6" role="graphics-symbol" aria-roledescription="bar" d="M41.118461538461546,399.63076923076926h5v0.3692307692307395h-5Z" fill="#4c78a8"/><path aria-label="Response Time (us): 18.528; Count: 2" role="graphics-symbol" aria-roledescription="bar" d="M40.92153846153845,399.87692307692305h5v0.12307692307695106h-5Z" fill="#4c78a8"/><path aria-label="Response Time (us): 18.512; Count: 1" role="graphics-symbol" aria-roledescription="bar" d="M40.72461538461539,399.9384615384615h5v0.06153846153847553h-5Z" fill="#4c78a8"/><path aria-label="Response Time (us): 18.336; Count: 3" role="graphics-symbol" aria-roledescription="bar" d="M38.558461538461565,399.8153846153846h5v0.1846153846154266h-5Z" fill="#4c78a8"/><path aria-label="Response Time (us): 18.128; Count: 1" role="graphics-symbol" aria-roledescription="bar" d="M35.99846153846154,399.9384615384615h5v0.06153846153847553h-5Z" fill="#4c78a8"/></g><g class="mark-group role-title"><g transform="translate(400,-22)"><path class="background" aria-hidden="true" d="M0,0h0v0h0Z" pointer-events="none"/><g><g class="mark-text role-title-text" role="graphics-symbol" aria-roledescription="title" aria-label="Title text 'response_simulator_isr_soft: bin_width_s=16.0ns, 88353 measurements'" pointer-events="none"><text text-anchor="middle" transform="translate(0,10)" font-family="sans-serif" font-size="13px" font-weight="bold" fill="#000" opacity="1">response_simulator_isr_soft: bin_width_s=16.0ns, 88353 measurements</text></g></g><path class="foreground" aria-hidden="true" d="" pointer-events="none" display="none"/></g></g></g><path class="foreground" aria-hidden="true" d="" display="none"/></g></g></g></svg>