<svg xmlns="http://www.w3.org/2000/svg" xmlns:xlink="http://www.w3.org/1999/xlink" version="1.1" class="marks" width="858" height="464" viewBox="0 0 858 464"><rect width="858" height="464" fill="white"/><g fill="none" stroke-miterlimit="10" transform="translate(53,27)"><g class="mark-group role-frame root" role="graphics-object" aria-roledescription="group mark container"><g transform="translate(0,0)"><path class="background" aria-hidden="true" d="M0.5,0.5h800v400h-800Z" stroke="#ddd"/><g><g class="mark-group role-axis" aria-hidden="true"><g transform="translate(0.5,400.5)"><path class="background" aria-hidden="true" d="M0,0h0v0h0Z" pointer-events="none"/><g><g class="mark-rule role-axis-grid" pointer-events="none"><line transform="translate(0,-400)" x2="0" y2="400" stroke="#ddd" stroke-width="1" opacity="1"/><line transform="translate(29,-400)" x2="0" y2="400" stroke="#ddd" stroke-width="1" opacity="1"/><line transform="translate(58,-400)" x2="0" y2="400" stroke="#ddd" stroke-width="1" opacity="1"/><line transform="translate(87,-400)" x2="0" y2="400" stroke="#ddd" stroke-width="1" opacity="1"/><line transform="translate(116,-400)" x2="0" y2="400" stroke="#ddd" stroke-width="1" opacity="1"/><line transform="translate(145,-400)" x2="0" y2="400" stroke="#ddd" stroke-width="1" opacity="1"/><line transform="translate(175,-400)" x2="0" y2="400" stroke="#ddd" stroke-width="1" opacity="1"/><line transform="translate(204,-400)" x2="0" y2="400" stroke="#ddd" stroke-width="1" opacity="1"/><line transform="translate(233,-400)" x2="0" y2="400" stroke="#ddd" stroke-width="1" opacity="1"/><line transform="translate(262,-400)" x2="0" y2="400" stroke="#ddd" stroke-width="1" opacity="1"/><line transform="translate(291,-400)" x2="0" y2="400" stroke="#ddd" stroke-width="1" opacity="1"/><line transform="translate(320,-400)" x2="0" y2="400" stroke="#ddd" stroke-width="1" opacity="1"/><line transform="translate(349,-400)" x2="0" y2="400" stroke="#ddd" stroke-width="1" opacity="1"/><line transform="translate(378,-400)" x2="0" y2="400" stroke="#ddd" stroke-width="1" opacity="1"/><line transform="translate(407,-400)" x2="0" y2="400" stroke="#ddd" stroke-width="1" opacity="1"/><line transform="translate(436,-400)" x2="0" y2="400" stroke="#ddd" stroke-width="1" opacity="1"/><line transform="translate(465,-400)" x2="0" y2="400" stroke="#ddd" stroke-width="1" opacity="1"/><line transform="translate(495,-400)" x2="0" y2="400" stroke="#ddd" stroke-width="1" opacity="1"/><line transform="translate(524,-400)" x2="0" y2="400" stroke="#ddd" stroke-width="1" opacity="1"/><line transform="translate(553,-400)" x2="0" y2="400" stroke="#ddd" stroke-width="1" opacity="1"/><line transform="translate(582,-400)" x2="0" y2="400" stroke="#ddd" stroke-width="1" opacity="1"/><line transform="translate(611,-400)" x2="0" y2="400" stroke="#ddd" stroke-width="1" opacity="1"/><line transform="translate(640,-400)" x2="0" y2="400" stroke="#ddd" stroke-width="1" opacity="1"/><line transform="translate(669,-400)" x2="0" y2="400" stroke="#ddd" stroke-width="1" opacity="1"/><line transform="translate(698,-400)" x2="0" y2="400" stroke="#ddd" stroke-width="1" opacity="1"/><line transform="translate(727,-400)" x2="0" y2="400" stroke="#ddd" stroke-width="1" opacity="1"/><line transform="translate(756,-400)" x2="0" y2="400" stroke="#ddd" stroke-width="1" opacity="1"/><line transform="translate(785,-400)" x2="0" y2="400" stroke="#ddd" stroke-width="1" opacity="1"/></g></g><path class="foreground" aria-hidden="true" d="" pointer-events="none" display="none"/></g></g><g class="mark-group role-axis" aria-hidden="true"><g transform="translate(0.5,0.5)"><path class="background" aria-hidden="true" d="M0,0h0v0h0Z" pointer-events="none"/><g><g class="mark-rule role-axis-grid" pointer-events="none"><line transform="translate(0,400)" x2="800" y2="0" stroke="#ddd" stroke-width="1" opacity="1"/><line transform="translate(0,371)" x2="800" y2="0" stroke="#ddd" stroke-width="1" opacity="1"/><line transform="translate(0,343)" x2="800" y2="0" stroke="#ddd" stroke-width="1" opacity="1"/><line transform="translate(0,314)" x2="800" y2="0" stroke="#ddd" stroke-width="1" opacity="1"/><line transform="translate(0,286)" x2="800" y2="0" stroke="#ddd" stroke-width="1" opacity="1"/><line transform="translate(0,257)" x2="800" y2="0" stroke="#ddd" stroke-width="1" opacity="1"/><line transform="translate(0,229)" x2="800" y2="0" stroke="#ddd" stroke-width="1" opacity="1"/><line transform="translate(0,200)" x2="800" y2="0" stroke="#ddd" stroke-width="1" opacity="1"/><line transform="translate(0,171)" x2="800" y2="0" stroke="#ddd" stroke-width="1" opacity="1"/><line transform="translate(0,143)" x2="800" y2="0" stroke="#ddd" stroke-width="1" opacity="1"/><line transform="translate(0,114)" x2="800" y2="0" stroke="#ddd" stroke-width="1" opacity="1"/><line transform="translate(0,86)" x2="800" y2="0" stroke="#ddd" stroke-width="1" opacity="1"/><line transform="translate(0,57)" x2="800" y2="0" stroke="#ddd" stroke-width="1" opacity="1"/><line transform="translate(0,29)" x2="800" y2="0" stroke="#ddd" stroke-width="1" opacity="1"/><line transform="translate(0,0)" x2="800" y2="0" stroke="#ddd" stroke-width="1" opacity="1"/></g></g><path class="foreground" aria-hidden="true" d="" pointer-events="none" display="none"/></g></g><g class="mark-group role-axis" role="graphics-symbol" aria-roledescription="axis" aria-label="X-axis titled 'Response Time (ns)' for a linear scale with values from 10,000 to 65,000"><g transform="translate(0.5,400.5)"><path class="background" aria-hidden="true" d="M0,0h0v0h0Z" pointer-events="none"/><g><g class="mark-rule role-axis-tick" pointer-events="none"><line transform="translate(0,0)" x2="0" y2="5" stroke="#888" stroke-width="1" opacity="1"/><line transform="translate(29,0)" x2="0" y2="5" stroke="#888" stroke-width="1" opacity="1"/><line transform="translate(58,0)" x2="0" y2="5" stroke="#888" stroke-width="1" opacity="1"/><line transform="translate(87,0)" x2="0" y2="5" stroke="#888" stroke-width="1" opacity="1"/><line transform="translate(116,0)" x2="0" y2="5" stroke="#888" stroke-width="1" opacity="1"/><line transform="translate(145,0)" x2="0" y2="5" stroke="#888" stroke-width="1" opacity="1"/><line transform="translate(175,0)" x2="0" y2="5" stroke="#888" stroke-width="1" opacity="1"/><line transform="translate(204,0)" x2="0" y2="5" stroke="#888" stroke-width="1" opacity="1"/><line transform="translate(233,0)" x2="0" y2="5" stroke="#888" stroke-width="1" opacity="1"/><line transform="translate(262,0)" x2="0" y2="5" stroke="#888" stroke-width="1" opacity="1"/><line transform="translate(291,0)" x2="0" y2="5" stroke="#888" stroke-width="1" opacity="1"/><line transform="translate(320,0)" x2="0" y2="5" stroke="#888" stroke-width="1" opacity="1"/><line transform="translate(349,0)" x2="0" y2="5" stroke="#888" stroke-width="1" opacity="1"/><line transform="translate(378,0)" x2="0" y2="5" stroke="#888" stroke-width="1" opacity="1"/><line transform="translate(407,0)" x2="0" y2="5" stroke="#888" stroke-width="1" opacity="1"/><line transform="translate(436,0)" x2="0" y2="5" stroke="#888" stroke-width="1" opacity="1"/><line transform="translate(465,0)" x2="0" y2="5" stroke="#888" stroke-width="1" opacity="1"/><line transform="translate(495,0)" x2="0" y2="5" stroke="#888" stroke-width="1" opacity="1"/><line transform="translate(524,0)" x2="0" y2="5" stroke="#888" stroke-width="1" opacity="1"/><line transform="translate(553,0)" x2="0" y2="5" stroke="#888" stroke-width="1" opacity="1"/><line transform="translate(582,0)" x2="0" y2="5" stroke="#888" stroke-width="1" opacity="1"/><line transform="translate(611,0)" x2="0" y2="5" stroke="#888" stroke-width="1" opacity="1"/><line transform="translate(640,0)" x2="0" y2="5" stroke="#888" stroke-width="1" opacity="1"/><line transform="translate(669,0)" x2="0" y2="5" stroke="#888" stroke-width="1" opacity="1"/><line transform="translate(698,0)" x2="0" y2="5" stroke="#888" stroke-width="1" opacity="1"/><line transform="translate(727,0)" x2="0" y2="5" stroke="#888" stroke-width="1" opacity="1"/><line transform="translate(756,0)" x2="0" y2="5" stroke="#888" stroke-width="1" opacity="1"/><line transform="translate(785,0)" x2="0" y2="5" stroke="#888" stroke-width="1" opacity="1"/></g><g class="mark-text role-axis-label" pointer-events="none"><text text-anchor="start" transform="translate(0,15)" font-family="sans-serif" font-size="10px" fill="#000" opacity="1">10,000</text><text text-anchor="middle" transform="translate(29.09090909090909,15)" font-family="sans-serif" font-size="10px" fill="#000" opacity="0">12,000</text><text text-anchor="middle" transform="translate(58.18181818181818,15)" font-family="sans-serif" font-size="10px" fill="#000" opacity="1">14,000</text><text text-anchor="middle" transform="translate(87.27272727272727,15)" font-family="sans-serif" font-size="10px" fill="#000" opacity="0">16,000</text><text text-anchor="middle" transform="translate(116.36363636363636,15)" font-family="sans-serif" font-size="10px" fill="#000" opacity="1">18,000</text><text text-anchor="middle" transform="translate(145.45454545454547,15)" font-family="sans-serif" font-size="10px" fill="#000" opacity="0">20,000</text><text text-anchor="middle" transform="translate(174.54545454545453,15)" font-family="sans-serif" font-size="10px" fill="#000" opacity="1">22,000</text><text text-anchor="middle" transform="translate(203.63636363636363,15)" font-family="sans-serif" font-size="10px" fill="#000" opacity="0">24,000</text><text text-anchor="middle" transform="translate(232.72727272727272,15)" font-family="sans-serif" font-size="10px" fill="#000" opacity="1">26,000</text><text text-anchor="middle" transform="translate(261.8181818181818,15)" font-family="sans-serif" font-size="10px" fill="#000" opacity="0">28,000</text><text text-anchor="middle" transform="translate(290.90909090909093,15)" font-family="sans-serif" font-size="10px" fill="#000" opacity="1">30,000</text><text text-anchor="middle" transform="translate(320,15)" font-family="sans-serif" font-size="10px" fill="#000" opacity="0">32,000</text><text text-anchor="middle" transform="translate(349.09090909090907,15)" font-family="sans-serif" font-size="10px" fill="#000" opacity="1">34,000</text><text text-anchor="middle" transform="translate(378.1818181818182,15)" font-family="sans-serif" font-size="10px" fill="#000" opacity="0">36,000</text><text text-anchor="middle" transform="translate(407.27272727272725,15)" font-family="sans-serif" font-size="10px" fill="#000" opacity="1">38,000</text><text text-anchor="middle" transform="translate(436.3636363636363,15)" font-family="sans-serif" font-size="10px" fill="#000" opacity="0">40,000</text><text text-anchor="middle" transform="translate(465.45454545454544,15)" font-family="sans-serif" font-size="10px" fill="#000" opacity="1">42,000</text><text text-anchor="middle" transform="translate(494.5454545454545,15)" font-family="sans-serif" font-size="10px" fill="#000" opacity="0">44,000</text><text text-anchor="middle" transform="translate(523.6363636363636,15)" font-family="sans-serif" font-size="10px" fill="#000" opacity="1">46,000</text><text text-anchor="middle" transform="translate(552.7272727272727,15)" font-family="sans-serif" font-size="10px" fill="#000" opacity="0">48,000</text><text text-anchor="middle" transform="translate(581.8181818181819,15)" font-family="sans-serif" font-size="10px" fill="#000" opacity="1">50,000</text><text text-anchor="middle" transform="translate(610.909090909091,15)" font-family="sans-serif" font-size="10px" fill="#000" opacity="0">52,000</text><text text-anchor="middle" transform="translate(640,15)" font-family="sans-serif" font-size="10px" fill="#000" opacity="1">54,000</text><text text-anchor="middle" transform="translate(669.090909090909,15)" font-family="sans-serif" font-size="10px" fill="#000" opacity="0">56,000</text><text text-anchor="middle" transform="translate(698.1818181818181,15)" font-family="sans-serif" font-size="10px" fill="#000" opacity="1">58,000</text><text text-anchor="middle" transform="translate(727.2727272727273,15)" font-family="sans-serif" font-size="10px" fill="#000" opacity="0">60,000</text><text text-anchor="middle" transform="translate(756.3636363636364,15)" font-family="sans-serif" font-size="10px" fill="#000" opacity="1">62,000</text><text text-anchor="middle" transform="translate(785.4545454545455,15)" font-family="sans-serif" font-size="10px" fill="#000" opacity="0">64,000</text></g><g class="mark-rule role-axis-domain" pointer-events="none"><line transform="translate(0,0)" x2="800" y2="0" stroke="#888" stroke-width="1" opacity="1"/></g><g class="mark-text role-axis-title" pointer-events="none"><text text-anchor="middle" transform="translate(400,30)" font-family="sans-serif" font-size="11px" font-weight="bold" fill="#000" opacity="1">Response Time (ns)</text></g></g><path class="foreground" aria-hidden="true" d="" pointer-events="none" display="none"/></g></g><g class="mark-group role-axis" role="graphics-symbol" aria-roledescription="axis" aria-label="Y-axis titled 'Count' for a linear scale with values from 0 to 7,000"><g transform="translate(0.5,0.5)"><path class="background" aria-hidden="true" d="M0,0h0v0h0Z" pointer-events="none"/><g><g class="mark-rule role-axis-tick" pointer-events="none"><line transform="translate(0,400)" x2="-5" y2="0" stroke="#888" stroke-width="1" opacity="1"/><line transform="translate(0,371)" x2="-5" y2="0" stroke="#888" stroke-width="1" opacity="1"/><line transform="translate(0,343)" x2="-5" y2="0" stroke="#888" stroke-width="1" opacity="1"/><line transform="translate(0,314)" x2="-5" y2="0" stroke="#888" stroke-width="1" opacity="1"/><line transform="translate(0,286)" x2="-5" y2="0" stroke="#888" stroke-width="1" opacity="1"/><line transform="translate(0,257)" x2="-5" y2="0" stroke="#888" stroke-width="1" opacity="1"/><line transform="translate(0,229)" x2="-5" y2="0" stroke="#888" stroke-width="1" opacity="1"/><line transform="translate(0,200)" x2="-5" y2="0" stroke="#888" stroke-width="1" opacity="1"/><line transform="translate(0,171)" x2="-5" y2="0" stroke="#888" stroke-width="1" opacity="1"/><line transform="translate(0,143)" x2="-5" y2="0" stroke="#888" stroke-width="1" opacity="1"/><line transform="translate(0,114)" x2="-5" y2="0" stroke="#888" stroke-width="1" opacity="1"/><line transform="translate(0,86)" x2="-5" y2="0" stroke="#888" stroke-width="1" opacity="1"/><line transform="translate(0,57)" x2="-5" y2="0" stroke="#888" stroke-width="1" opacity="1"/><line transform="translate(0,29)" x2="-5" y2="0" stroke="#888" stroke-width="1" opacity="1"/><line transform="translate(0,0)" x2="-5" y2="0" stroke="#888" stroke-width="1" opacity="1"/></g><g class="mark-text role-axis-label" pointer-events="none"><text text-anchor="end" transform="translate(-7,403)" font-family="sans-serif" font-size="10px" fill="#000" opacity="1">0</text><text text-anchor="end" transform="translate(-7,374.42857142857144)" font-family="sans-serif" font-size="10px" fill="#000" opacity="1">500</text><text text-anchor="end" transform="translate(-7,345.8571428571429)" font-family="sans-serif" font-size="10px" fill="#000" opacity="1">1,000</text><text text-anchor="end" transform="translate(-7,317.2857142857143)" font-family="sans-serif" font-size="10px" fill="#000" opacity="1">1,500</text><text text-anchor="end" transform="translate(-7,288.7142857142857)" font-family="sans-serif" font-size="10px" fill="#000" opacity="1">2,000</text><text text-anchor="end" transform="translate(-7,260.1428571428571)" font-family="sans-serif" font-size="10px" fill="#000" opacity="1">2,500</text><text text-anchor="end" transform="translate(-7,231.57142857142856)" font-family="sans-serif" font-size="10px" fill="#000" opacity="1">3,000</text><text text-anchor="end" transform="translate(-7,203)" font-family="sans-serif" font-size="10px" fill="#000" opacity="1">3,500</text><text text-anchor="end" transform="translate(-7,174.42857142857144)" font-family="sans-serif" font-size="10px" fill="#000" opacity="1">4,000</text><text text-anchor="end" transform="translate(-7,145.85714285714283)" font-family="sans-serif" font-size="10px" fill="#000" opacity="1">4,500</text><text text-anchor="end" transform="translate(-7,117.28571428571428)" font-family="sans-serif" font-size="10px" fill="#000" opacity="1">5,000</text><text text-anchor="end" transform="translate(-7,88.71428571428572)" font-family="sans-serif" font-size="10px" fill="#000" opacity="1">5,500</text><text text-anchor="end" transform="translate(-7,60.14285714285716)" font-family="sans-serif" font-size="10px" fill="#000" opacity="1">6,000</text><text text-anchor="end" transform="translate(-7,31.57142857142856)" font-family="sans-serif" font-size="10px" fill="#000" opacity="1">6,500</text><text text-anchor="end" transform="translate(-7,3)" font-family="sans-serif" font-size="10px" fill="#000" opacity="1">7,000</text></g><g class="mark-rule role-axis-domain" pointer-events="none"><line transform="translate(0,400)" x2="0" y2="-400" stroke="#888" stroke-width="1" opacity="1"/></g><g class="mark-text role-axis-title" pointer-events="none"><text text-anchor="middle" transform="translate(-36.0244140625,200) rotate(-90) translate(0,-2)" font-family="sans-serif" font-size="11px" font-weight="bold" fill="#000" opacity="1">Count</text></g></g><path class="foreground" aria-hidden="true" d="" pointer-events="none" display="none"/></g></g><g class="mark-rect role-mark marks" role="graphics-object" aria-roledescription="rect mark container"><path aria-label="Response Time (ns): 61376; Count: 1" role="graphics-symbol" aria-roledescription="bar" d="M744.7872727272727,399.9428571428572h5v0.05714285714282141h-5Z" fill="#4c78a8"/><path aria-label="Response Time (ns): 18560; Count: 1" role="graphics-symbol" aria-roledescription="bar" d="M122.00909090909097,399.9428571428572h5v0.05714285714282141h-5Z" fill="#4c78a8"/><path aria-label="Response Time (ns): 16752; Count: 2" role="graphics-symbol" aria-roledescription="bar" d="M95.7109090909091,399.88571428571424h5v0.11428571428575651h-5Z" fill="#4c78a8"/><path aria-label="Response Time (ns): 16560; Count: 1" role="graphics-symbol" aria-roledescription="bar" d="M92.91818181818181,399.9428571428572h5v0.05714285714282141h-5Z" fill="#4c78a8"/><path aria-label="Response Time (ns): 16544; Count: 1" role="graphics-symbol" aria-roledescription="bar" d="M92.68545454545455,399.9428571428572h5v0.05714285714282141h-5Z" fill="#4c78a8"/><path aria-label="Response Time (ns): 16352; Count: 5" role="graphics-symbol" aria-roledescription="bar" d="M89.8927272727273,399.7142857142857h5v0.2857142857142776h-5Z" fill="#4c78a8"/><path aria-label="Response Time (ns): 16336; Count: 1" role="graphics-symbol" aria-roledescription="bar" d="M89.66,399.9428571428572h5v0.05714285714282141h-5Z" fill="#4c78a8"/><path aria-label="Response Time (ns): 16160; Count: 4" role="graphics-symbol" aria-roledescription="bar" d="M87.10000000000002,399.7714285714286h5v0.22857142857139934h-5Z" fill="#4c78a8"/><path aria-label="Response Time (ns): 16144; Count: 18" role="graphics-symbol" aria-roledescription="bar" d="M86.86727272727273,398.9714285714286h5v1.0285714285714107h-5Z" fill="#4c78a8"/><path aria-label="Response Time (ns): 15952; Count: 44" role="graphics-symbol" aria-roledescription="bar" d="M84.07454545454549,397.48571428571427h5v2.5142857142857338h-5Z" fill="#4c78a8"/><path aria-label="Response Time (ns): 15936; Count: 30" role="graphics-symbol" aria-roledescription="bar" d="M83.84181818181821,398.2857142857143h5v1.7142857142857224h-5Z" fill="#4c78a8"/><path aria-label="Response Time (ns): 15920; Count: 1" role="graphics-symbol" aria-roledescription="bar" d="M83.60909090909091,399.9428571428572h5v0.05714285714282141h-5Z" fill="#4c78a8"/><path aria-label="Response Time (ns): 15760; Count: 14" role="graphics-symbol" aria-roledescription="bar" d="M81.28181818181821,399.2h5v0.8000000000000114h-5Z" fill="#4c78a8"/><path aria-label="Response Time (ns): 15744; Count: 136" role="graphics-symbol" aria-roledescription="bar" d="M81.0490909090909,392.2285714285714h5v7.771428571428601h-5Z" fill="#4c78a8"/><path aria-label="Response Time (ns): 15728; Count: 26" role="graphics-symbol" aria-roledescription="bar" d="M80.81636363636366,398.51428571428573h5v1.4857142857142662h-5Z" fill="#4c78a8"/><path aria-label="Response Time (ns): 15552; Count: 107" role="graphics-symbol" aria-roledescription="bar" d="M78.25636363636363,393.8857142857143h5v6.1142857142857h-5Z" fill="#4c78a8"/><path aria-label="Response Time (ns): 15536; Count: 291" role="graphics-symbol" aria-roledescription="bar" d="M78.02363636363638,383.37142857142857h5v16.628571428571433h-5Z" fill="#4c78a8"/><path aria-label="Response Time (ns): 15520; Count: 22" role="graphics-symbol" aria-roledescription="bar" d="M77.7909090909091,398.74285714285713h5v1.2571428571428669h-5Z" fill="#4c78a8"/><path aria-label="Response Time (ns): 15360; Count: 28" role="graphics-symbol" aria-roledescription="bar" d="M75.4636363636364,398.4h5v1.6000000000000227h-5Z" fill="#4c78a8"/><path aria-label="Response Time (ns): 15344; Count: 485" role="graphics-symbol" aria-roledescription="bar" d="M75.2309090909091,372.2857142857143h5v27.714285714285722h-5Z" fill="#4c78a8"/><path aria-label="Response Time (ns): 15328; Count: 354" role="graphics-symbol" aria-roledescription="bar" d="M74.99818181818182,379.77142857142854h5v20.228571428571456h-5Z" fill="#4c78a8"/><path aria-label="Response Time (ns): 15312; Count: 5" role="graphics-symbol" aria-roledescription="bar" d="M74.76545454545457,399.7142857142857h5v0.2857142857142776h-5Z" fill="#4c78a8"/><path aria-label="Response Time (ns): 15152; Count: 186" role="graphics-symbol" aria-roledescription="bar" d="M72.43818181818185,389.37142857142857h5v10.628571428571433h-5Z" fill="#4c78a8"/><path aria-label="Response Time (ns): 15136; Count: 1083" role="graphics-symbol" aria-roledescription="bar" d="M72.20545454545454,338.1142857142857h5v61.8857142857143h-5Z" fill="#4c78a8"/><path aria-label="Response Time (ns): 15120; Count: 261" role="graphics-symbol" aria-roledescription="bar" d="M71.9727272727273,385.0857142857143h5v14.914285714285711h-5Z" fill="#4c78a8"/><path aria-label="Response Time (ns): 14960; Count: 16" role="graphics-symbol" aria-roledescription="bar" d="M69.64545454545454,399.0857142857143h5v0.914285714285711h-5Z" fill="#4c78a8"/><path aria-label="Response Time (ns): 14944; Count: 981" role="graphics-symbol" aria-roledescription="bar" d="M69.4127272727273,343.9428571428572h5v56.05714285714282h-5Z" fill="#4c78a8"/><path aria-label="Response Time (ns): 14928; Count: 1623" role="graphics-symbol" aria-roledescription="bar" d="M69.18000000000002,307.25714285714287h5v92.74285714285713h-5Z" fill="#4c78a8"/><path aria-label="Response Time (ns): 14912; Count: 109" role="graphics-symbol" aria-roledescription="bar" d="M68.94727272727273,393.7714285714286h5v6.228571428571399h-5Z" fill="#4c78a8"/><path aria-label="Response Time (ns): 14752; Count: 238" role="graphics-symbol" aria-roledescription="bar" d="M66.62,386.4h5v13.600000000000023h-5Z" fill="#4c78a8"/><path aria-label="Response Time (ns): 14736; Count: 2444" role="graphics-symbol" aria-roledescription="bar" d="M66.38727272727273,260.3428571428571h5v139.6571428571429h-5Z" fill="#4c78a8"/><path aria-label="Response Time (ns): 14720; Count: 1486" role="graphics-symbol" aria-roledescription="bar" d="M66.15454545454548,315.0857142857143h5v84.91428571428571h-5Z" fill="#4c78a8"/><path aria-label="Response Time (ns): 14704; Count: 23" role="graphics-symbol" aria-roledescription="bar" d="M65.92181818181818,398.68571428571425h5v1.3142857142857451h-5Z" fill="#4c78a8"/><path aria-label="Response Time (ns): 14560; Count: 13" role="graphics-symbol" aria-roledescription="bar" d="M63.82727272727276,399.25714285714287h5v0.7428571428571331h-5Z" fill="#4c78a8"/><path aria-label="Response Time (ns): 14544; Count: 1132" role="graphics-symbol" aria-roledescription="bar" d="M63.59454545454548,335.31428571428575h5v64.68571428571425h-5Z" fill="#4c78a8"/><path aria-label="Response Time (ns): 14528; Count: 3880" role="graphics-symbol" aria-roledescription="bar" d="M63.36181818181818,178.28571428571428h5v221.71428571428572h-5Z" fill="#4c78a8"/><path aria-label="Response Time (ns): 14512; Count: 775" role="graphics-symbol" aria-roledescription="bar" d="M63.129090909090934,355.71428571428567h5v44.285714285714334h-5Z" fill="#4c78a8"/><path aria-label="Response Time (ns): 14352; Count: 135" role="graphics-symbol" aria-roledescription="bar" d="M60.801818181818184,392.2857142857143h5v7.714285714285722h-5Z" fill="#4c78a8"/><path aria-label="Response Time (ns): 14336; Count: 3272" role="graphics-symbol" aria-roledescription="bar" d="M60.56909090909093,213.02857142857144h5v186.97142857142856h-5Z" fill="#4c78a8"/><path aria-label="Response Time (ns): 14320; Count: 4285" role="graphics-symbol" aria-roledescription="bar" d="M60.336363636363636,155.14285714285717h5v244.85714285714283h-5Z" fill="#4c78a8"/><path aria-label="Response Time (ns): 14304; Count: 233" role="graphics-symbol" aria-roledescription="bar" d="M60.10363636363636,386.6857142857143h5v13.314285714285688h-5Z" fill="#4c78a8"/><path aria-label="Response Time (ns): 14160; Count: 6" role="graphics-symbol" aria-roledescription="bar" d="M58.009090909090936,399.65714285714284h5v0.34285714285715585h-5Z" fill="#4c78a8"/><path aria-label="Response Time (ns): 14144; Count: 815" role="graphics-symbol" aria-roledescription="bar" d="M57.77636363636364,353.42857142857144h5v46.571428571428555h-5Z" fill="#4c78a8"/><path aria-label="Response Time (ns): 14128; Count: 6146" role="graphics-symbol" aria-roledescription="bar" d="M57.54363636363639,48.8h5v351.2h-5Z" fill="#4c78a8"/><path aria-label="Response Time (ns): 14112; Count: 2663" role="graphics-symbol" aria-roledescription="bar" d="M57.310909090909114,247.82857142857142h5v152.17142857142858h-5Z" fill="#4c78a8"/><path aria-label="Response Time (ns): 14096; Count: 22" role="graphics-symbol" aria-roledescription="bar" d="M57.07818181818182,398.74285714285713h5v1.2571428571428669h-5Z" fill="#4c78a8"/><path aria-label="Response Time (ns): 13952; Count: 71" role="graphics-symbol" aria-roledescription="bar" d="M54.98363636363639,395.9428571428572h5v4.057142857142821h-5Z" fill="#4c78a8"/><path aria-label="Response Time (ns): 13936; Count: 2768" role="graphics-symbol" aria-roledescription="bar" d="M54.75090909090908,241.82857142857142h5v158.17142857142858h-5Z" fill="#4c78a8"/><path aria-label="Response Time (ns): 13920; Count: 6901" role="graphics-symbol" aria-roledescription="bar" d="M54.51818181818182,5.6571428571428495h5v394.34285714285716h-5Z" fill="#4c78a8"/><path aria-label="Response Time (ns): 13904; Count: 1031" role="graphics-symbol" aria-roledescription="bar" d="M54.28545454545457,341.0857142857143h5v58.91428571428571h-5Z" fill="#4c78a8"/><path aria-label="Response Time (ns): 13888; Count: 1" role="graphics-symbol" aria-roledescription="bar" d="M54.052727272727296,399.9428571428572h5v0.05714285714282141h-5Z" fill="#4c78a8"/><path aria-label="Response Time (ns): 13760; Count: 1" role="graphics-symbol" aria-roledescription="bar" d="M52.19090909090909,399.9428571428572h5v0.05714285714282141h-5Z" fill="#4c78a8"/><path aria-label="Response Time (ns): 13744; Count: 390" role="graphics-symbol" aria-roledescription="bar" d="M51.958181818181814,377.7142857142857h5v22.285714285714278h-5Z" fill="#4c78a8"/><path aria-label="Response Time (ns): 13728; Count: 5482" role="graphics-symbol" aria-roledescription="bar" d="M51.725454545454575,86.74285714285715h5v313.25714285714287h-5Z" fill="#4c78a8"/><path aria-label="Response Time (ns): 13712; Count: 5102" role="graphics-symbol" aria-roledescription="bar" d="M51.49272727272727,108.45714285714286h5v291.54285714285714h-5Z" fill="#4c78a8"/><path aria-label="Response Time (ns): 13696; Count: 225" role="graphics-symbol" aria-roledescription="bar" d="M51.26,387.14285714285717h5v12.857142857142833h-5Z" fill="#4c78a8"/><path aria-label="Response Time (ns): 13552; Count: 14" role="graphics-symbol" aria-roledescription="bar" d="M49.16545454545455,399.2h5v0.8000000000000114h-5Z" fill="#4c78a8"/><path aria-label="Response Time (ns): 13536; Count: 1465" role="graphics-symbol" aria-roledescription="bar" d="M48.93272727272728,316.2857142857143h5v83.71428571428572h-5Z" fill="#4c78a8"/><path aria-label="Response Time (ns): 13520; Count: 6872" role="graphics-symbol" aria-roledescription="bar" d="M48.700000000000024,7.314285714285695h5v392.6857142857143h-5Z" fill="#4c78a8"/><path aria-label="Response Time (ns): 13504; Count: 2246" role="graphics-symbol" aria-roledescription="bar" d="M48.46727272727275,271.65714285714284h5v128.34285714285716h-5Z" fill="#4c78a8"/><path aria-label="Response Time (ns): 13488; Count: 25" role="graphics-symbol" aria-roledescription="bar" d="M48.234545454545454,398.57142857142856h5v1.4285714285714448h-5Z" fill="#4c78a8"/><path aria-label="Response Time (ns): 13344; Count: 88" role="graphics-symbol" aria-roledescription="bar" d="M46.14000000000003,394.9714285714286h5v5.028571428571411h-5Z" fill="#4c78a8"/><path aria-label="Response Time (ns): 13328; Count: 3056" role="graphics-symbol" aria-roledescription="bar" d="M45.907272727272726,225.37142857142857h5v174.62857142857143h-5Z" fill="#4c78a8"/><path aria-label="Response Time (ns): 13312; Count: 5294" role="graphics-symbol" aria-roledescription="bar" d="M45.67454545454545,97.48571428571427h5v302.51428571428573h-5Z" fill="#4c78a8"/><path aria-label="Response Time (ns): 13296; Count: 640" role="graphics-symbol" aria-roledescription="bar" d="M45.441818181818206,363.42857142857144h5v36.571428571428555h-5Z" fill="#4c78a8"/><path aria-label="Response Time (ns): 13280; Count: 1" role="graphics-symbol" aria-roledescription="bar" d="M45.20909090909093,399.9428571428572h5v0.05714285714282141h-5Z" fill="#4c78a8"/><path aria-label="Response Time (ns): 13152; Count: 3" role="graphics-symbol" aria-roledescription="bar" d="M43.347272727272724,399.8285714285714h5v0.17142857142857792h-5Z" fill="#4c78a8"/><path aria-label="Response Time (ns): 13136; Count: 413" role="graphics-symbol" aria-roledescription="bar" d="M43.11454545454548,376.40000000000003h5v23.599999999999966h-5Z" fill="#4c78a8"/><path aria-label="Response Time (ns): 13120; Count: 3925" role="graphics-symbol" aria-roledescription="bar" d="M42.881818181818204,175.71428571428572h5v224.28571428571428h-5Z" fill="#4c78a8"/><path aria-label="Response Time (ns): 13104; Count: 2696" role="graphics-symbol" aria-roledescription="bar" d="M42.64909090909091,245.94285714285715h5v154.05714285714285h-5Z" fill="#4c78a8"/><path aria-label="Response Time (ns): 13088; Count: 112" role="graphics-symbol" aria-roledescription="bar" d="M42.416363636363634,393.6h5v6.399999999999977h-5Z" fill="#4c78a8"/><path aria-label="Response Time (ns): 12944; Count: 13" role="graphics-symbol" aria-roledescription="bar" d="M40.32181818181818,399.25714285714287h5v0.7428571428571331h-5Z" fill="#4c78a8"/><path aria-label="Response Time (ns): 12928; Count: 1003" role="graphics-symbol" aria-roledescription="bar" d="M40.08909090909091,342.6857142857143h5v57.31428571428569h-5Z" fill="#4c78a8"/><path aria-label="Response Time (ns): 12912; Count: 3281" role="graphics-symbol" aria-roledescription="bar" d="M39.85636363636367,212.51428571428573h5v187.48571428571427h-5Z" fill="#4c78a8"/><path aria-label="Response Time (ns): 12896; Count: 862" role="graphics-symbol" aria-roledescription="bar" d="M39.62363636363639,350.74285714285713h5v49.25714285714287h-5Z" fill="#4c78a8"/><path aria-label="Response Time (ns): 12880; Count: 7" role="graphics-symbol" aria-roledescription="bar" d="M39.39090909090909,399.6h5v0.39999999999997726h-5Z" fill="#4c78a8"/><path aria-label="Response Time (ns): 12736; Count: 80" role="graphics-symbol" aria-roledescription="bar" d="M37.296363636363665,395.42857142857144h5v4.571428571428555h-5Z" fill="#4c78a8"/><path aria-label="Response Time (ns): 12720; Count: 1429" role="graphics-symbol" aria-roledescription="bar" d="M37.06363636363636,318.34285714285716h5v81.65714285714284h-5Z" fill="#4c78a8"/><path aria-label="Response Time (ns): 12704; Count: 1634" role="graphics-symbol" aria-roledescription="bar" d="M36.83090909090909,306.62857142857143h5v93.37142857142857h-5Z" fill="#4c78a8"/><path aria-label="Response Time (ns): 12688; Count: 172" role="graphics-symbol" aria-roledescription="bar" d="M36.59818181818184,390.1714285714286h5v9.828571428571422h-5Z" fill="#4c78a8"/><path aria-label="Response Time (ns): 12544; Count: 1" role="graphics-symbol" aria-roledescription="bar" d="M34.50363636363637,399.9428571428572h5v0.05714285714282141h-5Z" fill="#4c78a8"/><path aria-label="Response Time (ns): 12528; Count: 193" role="graphics-symbol" aria-roledescription="bar" d="M34.270909090909115,388.9714285714286h5v11.02857142857141h-5Z" fill="#4c78a8"/><path aria-label="Response Time (ns): 12512; Count: 1131" role="graphics-symbol" aria-roledescription="bar" d="M34.03818181818185,335.37142857142857h5v64.62857142857143h-5Z" fill="#4c78a8"/><path aria-label="Response Time (ns): 12496; Count: 615" role="graphics-symbol" aria-roledescription="bar" d="M33.805454545454545,364.85714285714283h5v35.14285714285717h-5Z" fill="#4c78a8"/><path aria-label="Response Time (ns): 12480; Count: 28" role="graphics-symbol" aria-roledescription="bar" d="M33.57272727272727,398.4h5v1.6000000000000227h-5Z" fill="#4c78a8"/><path aria-label="Response Time (ns): 12336; Count: 10" role="graphics-symbol" aria-roledescription="bar" d="M31.478181818181817,399.42857142857144h5v0.5714285714285552h-5Z" fill="#4c78a8"/><path aria-label="Response Time (ns): 12320; Count: 258" role="graphics-symbol" aria-roledescription="bar" d="M31.245454545454542,385.25714285714287h5v14.742857142857133h-5Z" fill="#4c78a8"/><path aria-label="Response Time (ns): 12304; Count: 610" role="graphics-symbol" aria-roledescription="bar" d="M31.012727272727297,365.1428571428571h5v34.85714285714289h-5Z" fill="#4c78a8"/><path aria-label="Response Time (ns): 12288; Count: 149" role="graphics-symbol" aria-roledescription="bar" d="M30.78000000000003,391.4857142857143h5v8.514285714285677h-5Z" fill="#4c78a8"/><path aria-label="Response Time (ns): 12272; Count: 1" role="graphics-symbol" aria-roledescription="bar" d="M30.547272727272727,399.9428571428572h5v0.05714285714282141h-5Z" fill="#4c78a8"/><path aria-label="Response Time (ns): 12128; Count: 26" role="graphics-symbol" aria-roledescription="bar" d="M28.452727272727298,398.51428571428573h5v1.4857142857142662h-5Z" fill="#4c78a8"/><path aria-label="Response Time (ns): 12112; Count: 240" role="graphics-symbol" aria-roledescription="bar" d="M28.22,386.2857142857143h5v13.714285714285722h-5Z" fill="#4c78a8"/><path aria-label="Response Time (ns): 12096; Count: 256" role="graphics-symbol" aria-roledescription="bar" d="M27.987272727272728,385.37142857142857h5v14.628571428571433h-5Z" fill="#4c78a8"/><path aria-label="Response Time (ns): 12080; Count: 20" role="graphics-symbol" aria-roledescription="bar" d="M27.75454545454548,398.85714285714283h5v1.1428571428571672h-5Z" fill="#4c78a8"/><path aria-label="Response Time (ns): 11936; Count: 2" role="graphics-symbol" aria-roledescription="bar" d="M25.66,399.88571428571424h5v0.11428571428575651h-5Z" fill="#4c78a8"/><path aria-label="Response Time (ns): 11920; Count: 31" role="graphics-symbol" aria-roledescription="bar" d="M25.427272727272758,398.2285714285714h5v1.7714285714286007h-5Z" fill="#4c78a8"/><path aria-label="Response Time (ns): 11904; Count: 120" role="graphics-symbol" aria-roledescription="bar" d="M25.194545454545484,393.14285714285717h5v6.857142857142833h-5Z" fill="#4c78a8"/><path aria-label="Response Time (ns): 11888; Count: 52" role="graphics-symbol" aria-roledescription="bar" d="M24.96181818181818,397.0285714285714h5v2.9714285714285893h-5Z" fill="#4c78a8"/><path aria-label="Response Time (ns): 11728; Count: 3" role="graphics-symbol" aria-roledescription="bar" d="M22.634545454545453,399.8285714285714h5v0.17142857142857792h-5Z" fill="#4c78a8"/><path aria-label="Response Time (ns): 11712; Count: 21" role="graphics-symbol" aria-roledescription="bar" d="M22.40181818181818,398.8h5v1.1999999999999886h-5Z" fill="#4c78a8"/><path aria-label="Response Time (ns): 11696; Count: 62" role="graphics-symbol" aria-roledescription="bar" d="M22.169090909090936,396.45714285714286h5v3.5428571428571445h-5Z" fill="#4c78a8"/><path aria-label="Response Time (ns): 11680; Count: 16" role="graphics-symbol" aria-roledescription="bar" d="M21.936363636363637,399.0857142857143h5v0.914285714285711h-5Z" fill="#4c78a8"/><path aria-label="Response Time (ns): 11520; Count: 3" role="graphics-symbol" aria-roledescription="bar" d="M19.609090909090938,399.8285714285714h5v0.17142857142857792h-5Z" fill="#4c78a8"/><path aria-label="Response Time (ns): 11504; Count: 17" role="graphics-symbol" aria-roledescription="bar" d="M19.376363636363635,399.0285714285714h5v0.9714285714285893h-5Z" fill="#4c78a8"/><path aria-label="Response Time (ns): 11488; Count: 15" role="graphics-symbol" aria-roledescription="bar" d="M19.143636363636364,399.14285714285717h5v0.8571428571428328h-5Z" fill="#4c78a8"/><path aria-label="Response Time (ns): 11296; Count: 4" role="graphics-symbol" aria-roledescription="bar" d="M16.35090909090909,399.7714285714286h5v0.22857142857139934h-5Z" fill="#4c78a8"/><path aria-label="Response Time (ns): 11280; Count: 1" role="graphics-symbol" aria-roledescription="bar" d="M16.118181818181817,399.9428571428572h5v0.05714285714282141h-5Z" fill="#4c78a8"/><path aria-label="Response Time (ns): 11088; Count: 1" role="graphics-symbol" aria-roledescription="bar" d="M13.325454545454573,399.9428571428572h5v0.05714285714282141h-5Z" fill="#4c78a8"/><path aria-label="Response Time (ns): 10880; Count: 1" role="graphics-symbol" aria-roledescription="bar" d="M10.3,399.9428571428572h5v0.05714285714282141h-5Z" fill="#4c78a8"/></g><g class="mark-group role-title"><g transform="translate(400,-22)"><path class="background" aria-hidden="true" d="M0,0h0v0h0Z" pointer-events="none"/><g><g class="mark-text role-title-text" role="graphics-symbol" aria-roledescription="title" aria-label="Title text 'response_simulator_isr_hard: bin_width_s=16.0ns, 94594 measurements'" pointer-events="none"><text text-anchor="middle" transform="translate(0,10)" font-family="sans-serif" font-size="13px" font-weight="bold" fill="#000" opacity="1">response_simulator_isr_hard: bin_width_s=16.0ns, 94594 measurements</text></g></g><path class="foreground" aria-hidden="true" d="" pointer-events="none" display="none"/></g></g></g><path class="foreground" aria-hidden="true" d="" display="none"/></g></g></g></svg>